# This file uses feet as units for non-parametric coordinates.

mtllib wall_05.mtl
g default
v 5.046783 237.576324 150.392334
v 5.046783 237.576324 -125.313599
v -6.718018 237.576324 150.392334
v -6.718018 237.576324 -125.313599
v 5.046783 -0.100000 -125.313599
v 5.046783 -0.100000 150.392212
v -6.718018 -0.100000 -125.313599
v -6.718018 -0.100000 150.392212
v 5.146790 0.000000 243.790039
v 5.146790 237.476318 243.790039
v 5.146790 237.476318 -243.689941
v 5.146790 0.000000 -243.689941
v 5.096802 237.476318 -125.463623
v 5.096802 0.000000 -125.463623
v 5.096802 237.476318 150.542358
v 5.096802 0.000000 150.542358
v -6.768036 237.476318 150.442261
v -6.768036 0.000000 150.442261
v -6.768036 237.476318 -125.363525
v -6.768036 0.000000 -125.363525
v 6.718048 40.165852 243.790039
v 6.718048 42.933544 243.790039
v 5.246796 42.983543 243.790039
v 6.718048 42.933544 -243.690063
v 5.246796 42.983543 -243.690063
v 6.718048 40.165852 -243.690063
v 5.246796 40.115852 -243.690063
v 5.246796 40.115852 243.790039
v 6.657684 42.933544 -123.902588
v 5.176086 42.983543 -125.384277
v 6.657684 40.165852 -123.902588
v 5.176086 40.115852 -125.384277
v -6.647308 42.983543 -125.242920
v -5.186432 42.933544 -123.781860
v -5.186432 40.165852 -123.781860
v -6.647308 40.115852 -125.242920
v -6.647308 42.983543 150.321655
v -5.186432 42.933544 148.860718
v -5.186432 40.165852 148.860718
v -6.647308 40.115852 150.321655
v 6.657684 42.933544 148.981445
v 5.176086 42.983543 150.463013
v 6.657684 40.165852 148.981445
v 5.176086 40.115852 150.463013
v 6.718048 192.106720 243.790039
v 6.718048 194.874405 243.790039
v 5.246796 194.924408 243.790039
v 6.718048 194.874405 -243.690063
v 5.246796 194.924408 -243.690063
v 6.718048 192.106720 -243.690063
v 5.246796 192.056717 -243.690063
v 5.246796 192.056717 243.790039
v 6.657684 194.874405 -123.902588
v 5.176086 194.924408 -125.384277
v 6.657684 192.106720 -123.902588
v 5.176086 192.056717 -125.384277
v -6.647308 194.924408 -125.242920
v -5.186432 194.874405 -123.781860
v -5.186432 192.106720 -123.781860
v -6.647308 192.056717 -125.242920
v -6.647308 194.924408 150.321655
v -5.186432 194.874405 148.860718
v -5.186432 192.106720 148.860718
v -6.647308 192.056717 150.321655
v 6.657684 194.874405 148.981445
v 5.176086 194.924408 150.463013
v 6.657684 192.106720 148.981445
v 5.176086 192.056717 150.463013
v 6.718048 234.758636 243.790039
v 6.768036 237.476318 243.790039
v 6.768036 237.476318 -243.690063
v 6.718048 234.758636 -243.690063
v 5.246796 234.708633 -243.690063
v 5.246796 234.708633 243.790039
v 6.718048 237.476318 -123.842285
v 6.657684 234.758636 -123.902588
v 5.176086 234.708633 -125.384277
v -5.146790 237.476318 -123.742188
v -5.186432 234.758636 -123.781860
v -6.647308 234.708633 -125.242920
v -5.146790 237.476318 148.821045
v -5.186432 234.758636 148.860718
v -6.647308 234.708633 150.321655
v 6.718048 237.476318 148.921143
v 6.657684 234.758636 148.981445
v 5.176086 234.708633 150.463013
v 6.768036 0.000000 243.790039
v 6.718048 2.717691 243.790039
v 5.246796 2.767691 243.790039
v 6.718048 2.717691 -243.690063
v 5.246796 2.767691 -243.690063
v 6.768036 0.000000 -243.690063
v 6.657684 2.717691 -123.902588
v 5.176086 2.767691 -125.384277
v 6.718048 0.000000 -123.842285
v -6.647308 2.767691 -125.242920
v -5.186432 2.717691 -123.781860
v -5.146790 0.000000 -123.742188
v -6.647308 2.767691 150.321655
v -5.186432 2.717691 148.860718
v -5.146790 0.000000 148.821045
v 6.657684 2.717691 148.981445
v 5.176086 2.767691 150.463013
v 6.718048 0.000000 148.921143
v 5.246796 2.867694 -243.789917
v 5.246796 2.867694 -238.187134
v 5.246796 234.608643 -238.187134
v 5.246796 234.608643 -243.789917
v 5.831390 2.867689 -243.739990
v 5.831390 2.867689 -238.237061
v 5.831390 234.608643 -238.237061
v 5.831390 234.608643 -243.739990
v 6.035889 234.608627 -126.617798
v 5.246796 234.608627 -126.667847
v 6.035889 2.867692 -126.617798
v 5.246796 2.867692 -126.667847
v 6.035889 234.608627 -124.521362
v 6.035889 2.867692 -124.521362
v 3.886688 234.608627 -125.313599
v 3.936676 234.608627 -124.521362
v 3.936676 2.867692 -124.521362
v 3.886688 2.867692 -125.313599
v 3.938019 234.608627 149.603271
v 3.888031 234.608627 150.392334
v 3.938019 2.867692 149.603271
v 3.888031 2.867692 150.392334
v 6.034576 234.608627 149.603271
v 6.034576 2.867692 149.603271
v 5.242371 234.608627 151.752441
v 6.034576 234.608627 151.702393
v 6.034576 2.867692 151.702393
v 5.242371 2.867692 151.752441
vt 0.780431 0.020411
vt 0.392338 0.020412
vt 0.392821 0.003624
vt 0.779948 0.003623
vt 0.293893 0.462022
vt 0.293860 0.854404
vt 0.288208 0.854401
vt 0.288241 0.462023
vt 0.950508 0.306089
vt 0.830402 0.306089
vt 0.830402 0.629757
vt 0.950508 0.629757
vt 0.475596 0.306089
vt 0.323368 0.306089
vt 0.323368 0.629757
vt 0.475596 0.629757
vt 0.830402 0.306089
vt 0.475596 0.306089
vt 0.475596 0.629757
vt 0.830402 0.629757
vt 0.692955 0.307748
vt 0.681163 0.307748
vt 0.681163 0.626643
vt 0.692955 0.626643
vt 0.508827 0.626525
vt 0.521103 0.626525
vt 0.521103 0.307630
vt 0.508827 0.307630
vt 0.970425 0.542029
vt 0.970441 0.702774
vt 0.973575 0.700013
vt 0.973534 0.542027
vt 0.963805 0.790563
vt 0.969068 0.790575
vt 0.969081 0.587508
vt 0.963752 0.587495
vt 0.961713 0.700043
vt 0.964848 0.702793
vt 0.964915 0.542057
vt 0.961808 0.542076
vt 0.972045 0.790575
vt 0.972065 0.590263
vt 0.960767 0.590242
vt 0.960828 0.790554
vt 0.974101 0.839385
vt 0.973733 0.812500
vt 0.970140 0.816193
vt 0.970508 0.843078
vt 0.963696 0.816281
vt 0.964064 0.843167
vt 0.960003 0.812688
vt 0.960371 0.839573
vt 0.974955 0.878613
vt 0.974956 0.411352
vt 0.970859 0.414161
vt 0.970859 0.875804
vt 0.963479 0.414200
vt 0.963480 0.875765
vt 0.959501 0.411457
vt 0.959500 0.878509
vt 0.974774 0.539302
vt 0.974236 0.512419
vt 0.970520 0.508849
vt 0.971058 0.535732
vt 0.964077 0.508978
vt 0.964615 0.535861
vt 0.960507 0.512693
vt 0.961045 0.539577
vt 0.970425 0.542029
vt 0.970441 0.702774
vt 0.973575 0.700013
vt 0.973534 0.542027
vt 0.963805 0.790563
vt 0.969068 0.790575
vt 0.969081 0.587508
vt 0.963752 0.587495
vt 0.961713 0.700043
vt 0.964848 0.702793
vt 0.964915 0.542057
vt 0.961808 0.542076
vt 0.972045 0.790575
vt 0.972065 0.590263
vt 0.960767 0.590242
vt 0.960828 0.790554
vt 0.974101 0.839385
vt 0.973733 0.812500
vt 0.970140 0.816193
vt 0.970508 0.843078
vt 0.963696 0.816281
vt 0.964064 0.843167
vt 0.960003 0.812688
vt 0.960371 0.839573
vt 0.974955 0.878613
vt 0.974956 0.411352
vt 0.970859 0.414161
vt 0.970859 0.875804
vt 0.963479 0.414200
vt 0.963480 0.875765
vt 0.959501 0.411457
vt 0.959500 0.878509
vt 0.974774 0.539302
vt 0.974236 0.512419
vt 0.970520 0.508849
vt 0.971058 0.535732
vt 0.964077 0.508978
vt 0.964615 0.535861
vt 0.960507 0.512693
vt 0.961045 0.539577
vt 0.963805 0.790563
vt 0.969068 0.790575
vt 0.969081 0.587508
vt 0.963752 0.587495
vt 0.961713 0.700043
vt 0.964848 0.702793
vt 0.964915 0.542057
vt 0.961808 0.542076
vt 0.960767 0.590242
vt 0.960828 0.790554
vt 0.970508 0.843078
vt 0.970140 0.816193
vt 0.963696 0.816281
vt 0.964064 0.843167
vt 0.960003 0.812688
vt 0.960371 0.839573
vt 0.970859 0.875804
vt 0.970859 0.414161
vt 0.963479 0.414200
vt 0.963480 0.875765
vt 0.959501 0.411457
vt 0.959500 0.878509
vt 0.971058 0.535732
vt 0.970520 0.508849
vt 0.964077 0.508978
vt 0.964615 0.535861
vt 0.960507 0.512693
vt 0.961045 0.539577
vt 0.970425 0.542029
vt 0.970441 0.702774
vt 0.970425 0.542029
vt 0.970441 0.702774
vt 0.973575 0.700013
vt 0.973534 0.542027
vt 0.963805 0.790563
vt 0.969068 0.790575
vt 0.969081 0.587508
vt 0.963752 0.587495
vt 0.972045 0.790575
vt 0.972065 0.590263
vt 0.974101 0.839385
vt 0.973733 0.812500
vt 0.970140 0.816193
vt 0.970508 0.843078
vt 0.963696 0.816281
vt 0.964064 0.843167
vt 0.974955 0.878613
vt 0.974956 0.411352
vt 0.970859 0.414161
vt 0.970859 0.875804
vt 0.963479 0.414200
vt 0.963480 0.875765
vt 0.974774 0.539302
vt 0.974236 0.512419
vt 0.970520 0.508849
vt 0.971058 0.535732
vt 0.964077 0.508978
vt 0.964615 0.535861
vt 0.964915 0.542057
vt 0.964848 0.702793
vt 0.968479 0.315767
vt 0.968255 0.965850
vt 0.983959 0.965856
vt 0.984182 0.315772
vt 0.986241 0.315773
vt 0.986018 0.965856
vt 0.966196 0.965850
vt 0.966420 0.315766
vt 0.970007 0.315940
vt 0.970007 0.963275
vt 0.976137 0.963275
vt 0.976137 0.315940
vt 0.982275 0.963275
vt 0.982275 0.315940
vt 0.984905 0.963275
vt 0.984905 0.315940
vt 0.967386 0.315940
vt 0.967386 0.963275
vt 0.970007 0.315940
vt 0.970007 0.963275
vt 0.976137 0.963275
vt 0.976137 0.315940
vt 0.982275 0.963275
vt 0.982275 0.315940
vt 0.984905 0.963275
vt 0.984905 0.315940
vt 0.967386 0.315940
vt 0.967386 0.963275
vn 0.000000 -1.000000 0.000000
vn 0.000000 -1.000000 0.000000
vn 0.000000 -1.000000 0.000000
vn 0.000000 -1.000000 0.000000
vn 0.000000 1.000000 0.000000
vn 0.000000 1.000000 0.000000
vn 0.000000 1.000000 0.000000
vn 0.000000 1.000000 0.000000
vn 1.000000 0.000000 -0.000536
vn 1.000000 0.000000 -0.000536
vn 1.000000 0.000000 -0.000536
vn 1.000000 0.000000 -0.000536
vn 1.000000 0.000000 0.000423
vn 1.000000 0.000000 0.000423
vn 1.000000 0.000000 0.000423
vn 1.000000 0.000000 0.000423
vn 1.000000 0.000000 0.000000
vn 1.000000 0.000000 0.000000
vn 1.000000 0.000000 0.000000
vn 1.000000 0.000000 0.000000
vn 0.008437 0.000000 -0.999964
vn 0.008437 0.000000 -0.999964
vn 0.008437 0.000000 -0.999964
vn 0.008437 0.000000 -0.999964
vn 0.008436 0.000000 0.999964
vn 0.008436 0.000000 0.999964
vn 0.008436 0.000000 0.999964
vn 0.008436 0.000000 0.999964
vn 0.033834 0.999427 -0.000024
vn 0.033834 0.999427 -0.000024
vn 0.033834 0.999427 -0.000024
vn 0.033834 0.999427 -0.000024
vn 1.000000 0.000000 0.000504
vn 1.000000 0.000000 0.000504
vn 1.000000 0.000000 0.000504
vn 1.000000 0.000000 0.000504
vn 0.033834 -0.999427 -0.000024
vn 0.033834 -0.999427 -0.000024
vn 0.033834 -0.999427 -0.000024
vn 0.033834 -0.999427 -0.000024
vn 0.033836 0.999427 0.000019
vn 0.033836 0.999427 0.000019
vn 0.033836 0.999427 0.000019
vn 0.033836 0.999427 0.000019
vn 0.033836 -0.999427 0.000019
vn 0.033836 -0.999427 0.000019
vn 0.033836 -0.999427 0.000019
vn 0.033836 -0.999427 0.000019
vn 0.000372 0.999436 0.033590
vn 0.000372 0.999436 0.033590
vn 0.000372 0.999436 0.033590
vn 0.000372 0.999436 0.033590
vn 0.010193 0.000000 0.999948
vn 0.010193 0.000000 0.999948
vn 0.010193 0.000000 0.999948
vn 0.010193 0.000000 0.999948
vn 0.000372 -0.999436 0.033588
vn 0.000372 -0.999436 0.033588
vn 0.000372 -0.999436 0.033588
vn 0.000372 -0.999436 0.033588
vn 0.034205 0.999415 0.000000
vn 0.034205 0.999415 0.000000
vn 0.034205 0.999415 0.000000
vn 0.034205 0.999415 0.000000
vn 1.000000 0.000000 0.000000
vn 1.000000 0.000000 0.000000
vn 1.000000 0.000000 0.000000
vn 1.000000 0.000000 0.000000
vn 0.034205 -0.999415 0.000000
vn 0.034205 -0.999415 0.000000
vn 0.034205 -0.999415 0.000000
vn 0.034205 -0.999415 0.000000
vn 0.000372 0.999436 -0.033594
vn 0.000372 0.999436 -0.033594
vn 0.000372 0.999436 -0.033594
vn 0.000372 0.999436 -0.033594
vn 0.010193 0.000000 -0.999948
vn 0.010193 0.000000 -0.999948
vn 0.010193 0.000000 -0.999948
vn 0.010193 0.000000 -0.999948
vn 0.000372 -0.999436 -0.033592
vn 0.000372 -0.999436 -0.033592
vn 0.000372 -0.999436 -0.033592
vn 0.000372 -0.999436 -0.033592
vn 1.000000 0.000000 -0.000637
vn 1.000000 0.000000 -0.000637
vn 1.000000 0.000000 -0.000637
vn 1.000000 0.000000 -0.000637
vn 0.033836 0.999427 -0.000023
vn 0.033836 0.999427 -0.000023
vn 0.033836 0.999427 -0.000023
vn 0.033836 0.999427 -0.000023
vn 1.000000 0.000000 0.000504
vn 1.000000 0.000000 0.000504
vn 1.000000 0.000000 0.000504
vn 1.000000 0.000000 0.000504
vn 0.033836 -0.999427 -0.000024
vn 0.033836 -0.999427 -0.000024
vn 0.033836 -0.999427 -0.000024
vn 0.033836 -0.999427 -0.000024
vn 0.033839 0.999427 0.000019
vn 0.033839 0.999427 0.000019
vn 0.033839 0.999427 0.000019
vn 0.033839 0.999427 0.000019
vn 0.033839 -0.999427 0.000019
vn 0.033839 -0.999427 0.000019
vn 0.033839 -0.999427 0.000019
vn 0.033839 -0.999427 0.000019
vn 0.000372 0.999435 0.033597
vn 0.000372 0.999435 0.033597
vn 0.000372 0.999435 0.033597
vn 0.000372 0.999435 0.033597
vn 0.010193 0.000000 0.999948
vn 0.010193 0.000000 0.999948
vn 0.010193 0.000000 0.999948
vn 0.010193 0.000000 0.999948
vn 0.000372 -0.999436 0.033583
vn 0.000372 -0.999436 0.033583
vn 0.000372 -0.999436 0.033583
vn 0.000372 -0.999436 0.033583
vn 0.034208 0.999415 0.000000
vn 0.034208 0.999415 0.000000
vn 0.034208 0.999415 0.000000
vn 0.034208 0.999415 0.000000
vn 1.000000 0.000000 0.000000
vn 1.000000 0.000000 0.000000
vn 1.000000 0.000000 0.000000
vn 1.000000 0.000000 0.000000
vn 0.034208 -0.999415 0.000000
vn 0.034208 -0.999415 0.000000
vn 0.034208 -0.999415 0.000000
vn 0.034208 -0.999415 0.000000
vn 0.000372 0.999436 -0.033594
vn 0.000372 0.999436 -0.033594
vn 0.000372 0.999436 -0.033594
vn 0.000372 0.999435 -0.033594
vn 0.010193 0.000000 -0.999948
vn 0.010193 0.000000 -0.999948
vn 0.010193 0.000000 -0.999948
vn 0.010193 0.000000 -0.999948
vn 0.000372 -0.999436 -0.033586
vn 0.000372 -0.999436 -0.033586
vn 0.000372 -0.999436 -0.033586
vn 0.000372 -0.999436 -0.033586
vn 1.000000 0.000000 -0.000637
vn 1.000000 0.000000 -0.000637
vn 1.000000 0.000000 -0.000637
vn 1.000000 0.000000 -0.000637
vn 0.999794 -0.020303 0.000460
vn 0.999794 -0.020303 0.000460
vn 0.999794 -0.020303 0.000460
vn 0.999794 -0.020303 0.000460
vn 0.033836 -0.999427 -0.000024
vn 0.033836 -0.999427 -0.000024
vn 0.033836 -0.999427 -0.000024
vn 0.033836 -0.999427 -0.000024
vn 0.033839 -0.999427 0.000019
vn 0.033839 -0.999427 0.000019
vn 0.033839 -0.999427 0.000019
vn 0.033839 -0.999427 0.000019
vn 0.009311 -0.018561 0.999784
vn 0.009311 -0.018561 0.999784
vn 0.009311 -0.018561 0.999784
vn 0.009311 -0.018561 0.999784
vn 0.000372 -0.999436 0.033590
vn 0.000372 -0.999436 0.033590
vn 0.000372 -0.999436 0.033590
vn 0.000372 -0.999436 0.033590
vn 0.999894 -0.014585 0.000000
vn 0.999894 -0.014585 0.000000
vn 0.999894 -0.014585 0.000000
vn 0.999894 -0.014585 0.000000
vn 0.034208 -0.999415 0.000000
vn 0.034208 -0.999415 0.000000
vn 0.034208 -0.999415 0.000000
vn 0.034208 -0.999415 0.000000
vn 0.009312 -0.018561 -0.999784
vn 0.009312 -0.018561 -0.999784
vn 0.009312 -0.018561 -0.999784
vn 0.009312 -0.018561 -0.999784
vn 0.000372 -0.999436 -0.033591
vn 0.000372 -0.999436 -0.033591
vn 0.000372 -0.999436 -0.033591
vn 0.000372 -0.999436 -0.033591
vn 0.999794 -0.020305 -0.000582
vn 0.999794 -0.020305 -0.000582
vn 0.999794 -0.020305 -0.000582
vn 0.999794 -0.020305 -0.000582
vn 0.033834 0.999427 -0.000024
vn 0.033834 0.999427 -0.000024
vn 0.033834 0.999427 -0.000024
vn 0.033834 0.999427 -0.000024
vn 0.999794 0.020303 0.000460
vn 0.999794 0.020303 0.000460
vn 0.999794 0.020303 0.000460
vn 0.999794 0.020303 0.000460
vn 0.033837 0.999427 0.000019
vn 0.033837 0.999427 0.000019
vn 0.033837 0.999427 0.000019
vn 0.033837 0.999427 0.000019
vn 0.000372 0.999436 0.033590
vn 0.000372 0.999436 0.033590
vn 0.000372 0.999436 0.033590
vn 0.000372 0.999436 0.033590
vn 0.009312 0.018561 0.999784
vn 0.009312 0.018561 0.999784
vn 0.009312 0.018561 0.999784
vn 0.009312 0.018561 0.999784
vn 0.034206 0.999415 0.000000
vn 0.034206 0.999415 0.000000
vn 0.034206 0.999415 0.000000
vn 0.034206 0.999415 0.000000
vn 0.999894 0.014585 0.000000
vn 0.999894 0.014585 0.000000
vn 0.999894 0.014585 0.000000
vn 0.999894 0.014585 0.000000
vn 0.000372 0.999436 -0.033593
vn 0.000372 0.999436 -0.033593
vn 0.000372 0.999436 -0.033593
vn 0.000372 0.999436 -0.033593
vn 0.009312 0.018561 -0.999784
vn 0.009312 0.018561 -0.999784
vn 0.009312 0.018561 -0.999784
vn 0.009312 0.018561 -0.999784
vn 0.999794 0.020305 -0.000582
vn 0.999794 0.020305 -0.000582
vn 0.999794 0.020305 -0.000582
vn 0.999794 0.020305 -0.000582
vn 1.000000 0.000000 0.000000
vn 1.000000 0.000000 0.000000
vn 1.000000 0.000000 0.000000
vn 1.000000 0.000000 0.000000
vn 0.085067 0.000000 0.996375
vn 0.085068 0.000000 0.996375
vn 0.085067 0.000000 0.996375
vn 0.085067 0.000000 0.996375
vn 0.085068 0.000000 -0.996375
vn 0.085068 0.000000 -0.996375
vn 0.085068 0.000000 -0.996375
vn 0.085067 0.000000 -0.996375
vn 1.000000 0.000000 0.000000
vn 1.000000 0.000000 0.000000
vn 1.000000 0.000000 0.000000
vn 1.000000 0.000000 0.000000
vn 0.000000 0.000000 1.000000
vn 0.000000 0.000000 1.000000
vn 0.000000 0.000000 1.000000
vn 0.000000 0.000000 1.000000
vn -0.998015 0.000000 0.062972
vn -0.998015 0.000000 0.062972
vn -0.998015 0.000000 0.062972
vn -0.998015 0.000000 0.062972
vn 0.063295 0.000000 -0.997995
vn 0.063295 0.000000 -0.997995
vn 0.063295 0.000000 -0.997995
vn 0.063295 0.000000 -0.997995
vn 0.000000 0.000000 -1.000000
vn 0.000000 0.000000 -1.000000
vn 0.000000 0.000000 -1.000000
vn 0.000000 0.000000 -1.000000
vn 1.000000 0.000000 0.000000
vn 1.000000 0.000000 0.000000
vn 1.000000 0.000000 0.000000
vn 1.000000 0.000000 0.000000
vn 0.063047 0.000000 0.998011
vn 0.063047 0.000000 0.998011
vn 0.063047 0.000000 0.998011
vn 0.063047 0.000000 0.998011
vn -0.997999 0.000000 -0.063225
vn -0.997999 0.000000 -0.063225
vn -0.997999 0.000000 -0.063225
vn -0.997999 0.000000 -0.063225
s off
g wall_05_lft
usemtl walls_003_MATSG
f 2/1/1 1/2/2 3/3/3 4/4/4
f 6/5/5 5/6/6 7/7/7 8/8/8
f 9/9/9 16/10/10 15/11/11 10/12/12
f 14/13/13 12/14/14 11/15/15 13/16/16
f 18/17/17 20/18/18 19/19/19 17/20/20
f 16/21/21 18/22/22 17/23/23 15/24/24
f 13/25/25 19/26/26 20/27/27 14/28/28
f 22/29/29 41/30/30 42/31/31 23/32/32
f 26/33/33 24/34/34 29/35/35 31/36/36
f 44/37/37 43/38/38 21/39/39 28/40/40
f 29/35/41 24/34/42 25/41/43 30/42/44
f 32/43/45 27/44/46 26/33/47 31/36/48
f 30/45/49 33/46/50 34/47/51 29/48/52
f 29/48/53 34/47/54 35/49/55 31/50/56
f 31/50/57 35/49/58 36/51/59 32/52/60
f 33/53/61 37/54/62 38/55/63 34/56/64
f 34/56/65 38/55/66 39/57/67 35/58/68
f 35/58/69 39/57/70 40/59/71 36/60/72
f 37/61/73 42/62/74 41/63/75 38/64/76
f 38/64/77 41/63/78 43/65/79 39/66/80
f 39/66/81 43/65/82 44/67/83 40/68/84
f 22/29/85 21/39/86 43/38/87 41/30/88
f 46/69/89 65/70/90 66/71/91 47/72/92
f 50/73/93 48/74/94 53/75/95 55/76/96
f 68/77/97 67/78/98 45/79/99 52/80/100
f 53/75/101 48/74/102 49/81/103 54/82/104
f 56/83/105 51/84/106 50/73/107 55/76/108
f 54/85/109 57/86/110 58/87/111 53/88/112
f 53/88/113 58/87/114 59/89/115 55/90/116
f 55/90/117 59/89/118 60/91/119 56/92/120
f 57/93/121 61/94/122 62/95/123 58/96/124
f 58/96/125 62/95/126 63/97/127 59/98/128
f 59/98/129 63/97/130 64/99/131 60/100/132
f 61/101/133 66/102/134 65/103/135 62/104/136
f 62/104/137 65/103/138 67/105/139 63/106/140
f 63/106/141 67/105/142 68/107/143 64/108/144
f 46/69/145 45/79/146 67/78/147 65/70/148
f 72/109/149 71/110/150 75/111/151 76/112/152
f 86/113/153 85/114/154 69/115/155 74/116/156
f 77/117/157 73/118/158 72/109/159 76/112/160
f 75/119/161 78/120/162 79/121/163 76/122/164
f 76/122/165 79/121/166 80/123/167 77/124/168
f 78/125/169 81/126/170 82/127/171 79/128/172
f 79/128/173 82/127/174 83/129/175 80/130/176
f 81/131/177 84/132/178 85/133/179 82/134/180
f 82/134/181 85/133/182 86/135/183 83/136/184
f 70/137/185 69/115/186 85/114/187 84/138/188
f 88/139/189 102/140/190 103/141/191 89/142/192
f 92/143/193 90/144/194 93/145/195 95/146/196
f 93/145/197 90/144/198 91/147/199 94/148/200
f 94/149/201 96/150/202 97/151/203 93/152/204
f 93/152/205 97/151/206 98/153/207 95/154/208
f 96/155/209 99/156/210 100/157/211 97/158/212
f 97/158/213 100/157/214 101/159/215 98/160/216
f 99/161/217 103/162/218 102/163/219 100/164/220
f 100/164/221 102/163/222 104/165/223 101/166/224
f 88/139/225 87/167/226 104/168/227 102/140/228
f 109/169/229 112/170/230 111/171/231 110/172/232
f 106/173/233 110/172/234 111/171/235 107/174/236
f 108/175/237 112/170/238 109/169/239 105/176/240
f 115/177/241 113/178/242 117/179/243 118/180/244
f 117/179/245 120/181/246 121/182/247 118/180/248
f 121/182/249 120/181/250 119/183/251 122/184/252
f 113/178/253 115/177/254 116/185/255 114/186/256
f 125/187/257 123/188/258 127/189/259 128/190/260
f 127/189/261 130/191/262 131/192/263 128/190/264
f 131/192/265 130/191/266 129/193/267 132/194/268
f 123/188/269 125/187/270 126/195/271 124/196/272
