# This file uses feet as units for non-parametric coordinates.

mtllib frameFancy.mtl
g default
v -10.173431 0.000000 1.267956
v 10.173431 0.000000 1.267956
v -15.785095 39.416946 1.267956
v 15.785095 39.416946 1.267956
v -15.785095 39.416946 -1.267956
v 15.785095 39.416946 -1.267956
v -10.173431 0.000000 -1.267956
v 10.173431 0.000000 -1.267956
v -7.388260 5.264320 1.267956
v 7.388260 5.264320 1.267956
v 11.574844 32.762535 1.267956
v -11.574844 32.762535 1.267956
v -7.388260 5.264320 0.588973
v 7.388260 5.264320 0.588973
v 11.574844 32.762535 0.588973
v -11.574844 32.762535 0.588973
v -6.268982 39.160278 1.267956
v 5.660400 39.160278 1.267956
v -6.268982 39.160278 -1.267956
v 5.660400 39.160278 -1.267956
v 1.993454 41.264465 1.267956
v 1.993454 41.264465 -1.267956
v -2.602036 41.264465 -1.267956
v -2.602036 41.264465 1.267956
v 0.833084 44.321411 1.267956
v 0.833084 44.321411 -1.267956
v -1.441666 44.321411 -1.267956
v -1.441666 44.321411 1.267956
v -2.851196 42.093735 1.267956
v -2.851196 42.093735 -1.267956
v 2.242615 42.093735 -1.267956
v 2.242615 42.093735 1.267956
v -5.394089 40.444412 1.267956
v -5.394089 40.444412 -1.267956
v 4.785507 40.444412 -1.267956
v 4.785507 40.444412 1.267956
v 14.827240 34.806229 -1.267956
v 14.827240 34.806229 1.267956
v -14.827240 34.806229 1.267956
v -14.827240 34.806229 -1.267956
v 9.722580 2.945145 -1.267956
v 9.722580 2.945145 1.267956
v -9.722580 2.945145 1.267956
v -9.722580 2.945145 -1.267956
vt 0.418475 0.187435
vt 0.545707 0.181944
vt 0.564137 0.354807
vt 0.363739 0.354870
vt 0.322953 0.427021
vt 0.604327 0.426371
vt 0.633303 0.420266
vt 0.324476 0.454452
vt 0.321832 0.124546
vt 0.576321 0.095142
vt 0.575941 0.123377
vt 0.351343 0.123500
vt 0.548777 0.177899
vt 0.378619 0.177897
vt 0.566454 0.360834
vt 0.361427 0.360902
vt 0.381695 0.181911
vt 0.394179 0.347066
vt 0.528566 0.347060
vt 0.504255 0.187430
vt 0.293950 0.420383
vt 0.602901 0.453010
vt 0.351061 0.095285
vt 0.605512 0.125107
vt 0.406968 0.424515
vt 0.516879 0.423931
vt 0.403130 0.449110
vt 0.521065 0.448018
vt 0.485071 0.444762
vt 0.508164 0.465367
vt 0.417592 0.465066
vt 0.438984 0.445202
vt 0.470251 0.465986
vt 0.476958 0.487236
vt 0.447724 0.487402
vt 0.454704 0.465733
vt 0.438750 0.453177
vt 0.420556 0.473414
vt 0.504703 0.473703
vt 0.485781 0.452423
vt 0.416424 0.435694
vt 0.408797 0.455690
vt 0.515674 0.454349
vt 0.507624 0.435212
vt 0.609249 0.370025
vt 0.590770 0.374065
vt 0.336925 0.374172
vt 0.318393 0.370105
vt 0.589325 0.160224
vt 0.569424 0.160581
vt 0.357820 0.160608
vt 0.337927 0.160404
vn -0.146431 -0.989221 0.000000
vn 0.146431 -0.989221 0.000000
vn 0.090887 -0.613988 0.784065
vn -0.090887 -0.613988 0.784065
vn -0.077848 0.053685 0.995519
vn 0.077848 0.053685 0.995519
vn -0.032638 0.022508 0.999214
vn 0.032638 0.022508 0.999214
vn -0.039570 -0.027288 0.998844
vn 0.039570 -0.027288 0.998844
vn -0.088466 -0.061007 0.994209
vn 0.088015 -0.060696 0.994268
vn -0.843119 -0.112730 0.525778
vn -0.991179 -0.132527 0.000000
vn 0.991179 -0.132527 0.000000
vn 0.843119 -0.112730 0.525778
vn 0.986465 -0.163975 0.000000
vn 0.429041 0.903285 0.000000
vn 0.324876 0.683981 0.653166
vn 0.851047 -0.141465 0.505674
vn -0.344069 0.676298 0.651335
vn -0.851047 -0.141465 0.505674
vn -0.986465 -0.163975 0.000000
vn -0.453445 0.891285 0.000000
vn -0.013884 0.140411 0.989996
vn -0.098400 0.995147 0.000000
vn 0.013593 0.145516 0.989263
vn 0.093005 0.995666 0.000000
vn 0.497705 0.867346 0.000000
vn 0.487179 0.849003 0.204576
vn -0.487179 0.849003 0.204576
vn -0.497705 0.867346 0.000000
vn -0.517415 0.855735 0.000000
vn -0.332213 0.549435 0.766652
vn 0.332213 0.549435 0.766652
vn 0.517415 0.855735 0.000000
vn -0.934912 0.354878 0.000000
vn -0.924398 0.350887 0.149555
vn 0.924398 0.350887 0.149555
vn 0.934912 0.354879 0.000000
vn -0.108830 0.167792 0.979797
vn 0.108830 0.167792 0.979797
vn 0.544163 0.838980 0.000000
vn -0.544163 0.838980 0.000000
s 1
g FrameFancy_scene1
usemtl pictures_01_MATSG
f 7/23/1 8/10/2 2/11/3 1/12/4
f 1/12/4 2/11/3 10/13/5 9/14/6
f 9/14/6 10/13/5 14/2/7 13/17/8
f 13/1/8 14/20/7 15/19/9 16/18/10
f 14/2/7 10/13/5 11/15/11 15/3/9
f 16/4/10 15/3/9 11/15/11 12/16/12
f 9/14/6 13/17/8 16/4/10 12/16/12
f 1/12/4 43/51/13 44/52/14 7/9/1
f 9/14/6 43/51/13 1/12/4
f 8/24/2 41/49/15 42/50/16 2/11/3
f 2/11/3 42/50/16 10/13/5
f 37/45/17 6/7/18 4/6/19 38/46/20
f 11/15/11 38/46/20 4/6/19
f 12/16/12 3/5/21 39/47/22
f 40/48/23 39/47/22 3/5/21 5/21/24
f 41/49/15 37/45/17 38/46/20 42/50/16
f 10/13/5 42/50/16 38/46/20 11/15/11
f 12/16/12 39/47/22 43/51/13 9/14/6
f 44/52/14 43/51/13 39/47/22 40/48/23
f 17/25/25 19/27/26 5/8/24 3/5/21
f 12/16/12 17/25/25 3/5/21
f 18/26/27 17/25/25 12/16/12 11/15/11
f 18/26/27 11/15/11 4/6/19
f 18/26/27 4/6/19 6/22/18 20/28/28
f 20/28/28 35/43/29 36/44/30 18/26/27
f 17/25/25 33/41/31 34/42/32 19/27/26
f 27/35/33 28/36/34 25/33/35 26/34/36
f 28/36/34 27/35/33 30/38/37 29/37/38
f 26/34/36 25/33/35 32/40/39 31/39/40
f 17/25/25 24/32/41 33/41/31
f 21/29/42 22/30/43 31/39/40 32/40/39
f 23/31/44 24/32/41 29/37/38 30/38/37
f 24/32/41 28/36/34 29/37/38
f 34/42/32 33/41/31 24/32/41 23/31/44
f 36/44/30 35/43/29 22/30/43 21/29/42
f 18/26/27 21/29/42 24/32/41 17/25/25
f 21/29/42 18/26/27 36/44/30
f 28/36/34 24/32/41 21/29/42 25/33/35
f 25/33/35 21/29/42 32/40/39
