# This file uses feet as units for non-parametric coordinates.

mtllib wall_02_rt.mtl
g default
v 191.774841 0.100000 702.044067
v 191.774841 237.576324 702.044067
v 191.774841 237.576324 214.564087
v 191.774841 0.100000 214.564087
v 190.203583 40.265850 702.044067
v 190.203583 43.033543 702.044067
v 191.674835 43.083542 702.044067
v 190.203583 43.033543 214.563965
v 191.674835 43.083542 214.563965
v 190.203583 40.265850 214.563965
v 191.674835 40.215851 214.563965
v 191.674835 40.215851 702.044067
v 190.153595 0.100002 702.044067
v 190.203583 2.817696 702.044067
v 191.674835 2.867696 702.044067
v 190.203583 2.817696 214.563965
v 191.674835 2.867696 214.563965
v 190.153595 0.100002 214.563965
v 190.203583 234.858612 702.044067
v 190.153595 237.576309 702.044067
v 190.153595 237.576309 214.563965
v 190.203583 234.858612 214.563965
v 191.674835 234.808609 214.563965
v 191.674835 234.808609 702.044067
v 190.203583 192.206726 702.044067
v 190.203583 194.974411 702.044067
v 191.674835 195.024414 702.044067
v 190.203583 194.974411 214.563965
v 191.674835 195.024414 214.563965
v 190.203583 192.206726 214.563965
v 191.674835 192.156723 214.563965
v 191.674835 192.156723 702.044067
v 191.522552 237.676331 702.044067
v 191.522552 237.676331 214.564087
v 8.842560 237.676331 214.564087
v 8.842560 237.676331 702.044067
v 8.842560 0.000000 214.564087
v 191.522552 0.000000 214.564087
v 8.842560 0.000002 702.044067
v 191.522552 0.000002 702.044067
vt 0.950508 0.306089
vt 0.950508 0.629757
vt 0.323368 0.629757
vt 0.323368 0.306089
vt 0.968663 0.318274
vt 0.971228 0.318277
vt 0.971228 0.965706
vt 0.968663 0.965708
vt 0.964157 0.965708
vt 0.964156 0.318275
vt 0.961704 0.965706
vt 0.961704 0.318277
vt 0.968831 0.312284
vt 0.970978 0.312284
vt 0.970978 0.958239
vt 0.968831 0.958239
vt 0.965032 0.958239
vt 0.965032 0.312284
vt 0.967894 0.954708
vt 0.967894 0.336224
vt 0.971728 0.336226
vt 0.971728 0.954706
vt 0.965739 0.954709
vt 0.965739 0.336223
vt 0.968663 0.318274
vt 0.971228 0.318277
vt 0.971228 0.965706
vt 0.968663 0.965708
vt 0.964157 0.965708
vt 0.964156 0.318275
vt 0.961704 0.965706
vt 0.961704 0.318277
vt 0.256219 0.013885
vt 0.957734 0.013884
vt 0.957734 0.276952
vt 0.256219 0.276952
vt 0.297547 0.289372
vt 0.297547 0.990886
vt 0.034479 0.990886
vt 0.034479 0.289372
vn -1.000000 0.000000 0.000000
vn -1.000000 0.000000 0.000000
vn -1.000000 0.000000 0.000000
vn -1.000000 0.000000 0.000000
vn -0.033964 0.999423 0.000000
vn -0.033964 0.999423 0.000000
vn -0.033964 0.999423 0.000000
vn -0.033964 0.999423 0.000000
vn -1.000000 0.000000 0.000000
vn -1.000000 0.000000 0.000000
vn -1.000000 0.000000 0.000000
vn -1.000000 0.000000 0.000000
vn -0.033964 -0.999423 0.000000
vn -0.033964 -0.999423 0.000000
vn -0.033964 -0.999423 0.000000
vn -0.033964 -0.999423 0.000000
vn -0.033965 0.999423 0.000000
vn -0.033965 0.999423 0.000000
vn -0.033965 0.999423 0.000000
vn -0.033965 0.999423 0.000000
vn -0.999831 0.018390 0.000000
vn -0.999831 0.018390 0.000000
vn -0.999831 0.018390 0.000000
vn -0.999831 0.018390 0.000000
vn -0.999831 -0.018390 0.000000
vn -0.999831 -0.018390 0.000000
vn -0.999831 -0.018390 0.000000
vn -0.999831 -0.018390 0.000000
vn -0.033967 -0.999423 0.000000
vn -0.033967 -0.999423 0.000000
vn -0.033967 -0.999423 0.000000
vn -0.033967 -0.999423 0.000000
vn -0.033967 0.999423 0.000000
vn -0.033967 0.999423 0.000000
vn -0.033967 0.999423 0.000000
vn -0.033967 0.999423 0.000000
vn -1.000000 0.000000 0.000000
vn -1.000000 0.000000 0.000000
vn -1.000000 0.000000 0.000000
vn -1.000000 0.000000 0.000000
vn -0.033967 -0.999423 0.000000
vn -0.033967 -0.999423 0.000000
vn -0.033967 -0.999423 0.000000
vn -0.033967 -0.999423 0.000000
vn 0.000000 -1.000000 0.000000
vn 0.000000 -1.000000 0.000000
vn 0.000000 -1.000000 0.000000
vn 0.000000 -1.000000 0.000000
vn 0.000000 1.000000 -0.000000
vn 0.000000 1.000000 -0.000000
vn 0.000000 1.000000 -0.000000
vn 0.000000 1.000000 -0.000000
s off
g wall_02_rt
usemtl walls_002_MATSG
f 1/1/1 2/2/2 3/3/3 4/4/4
f 6/5/5 7/6/6 9/7/7 8/8/8
f 10/9/9 5/10/10 6/5/11 8/8/12
f 5/10/13 10/9/14 11/11/15 12/12/16
f 14/13/17 15/14/18 17/15/19 16/16/20
f 18/17/21 13/18/22 14/13/23 16/16/24
f 22/19/25 19/20/26 20/21/27 21/22/28
f 19/20/29 22/19/30 23/23/31 24/24/32
f 26/25/33 27/26/34 29/27/35 28/28/36
f 30/29/37 25/30/38 26/25/39 28/28/40
f 25/30/41 30/29/42 31/31/43 32/32/44
f 36/33/45 35/34/46 34/35/47 33/36/48
f 37/37/49 39/38/50 40/39/51 38/40/52
