# This file uses feet as units for non-parametric coordinates.

mtllib wall_01_rt.mtl
g default
v 185.458801 237.676331 1257.067505
v 185.458801 237.676331 769.587524
v 2.778809 237.676331 769.587524
v 2.778809 237.676331 1257.067505
v 2.778809 237.676331 1163.769775
v 2.778809 237.676331 887.863892
v 185.458801 237.676331 887.863892
v 185.458801 237.676331 1163.769775
v 185.458801 0.000000 1257.067383
v 2.778809 0.000000 1257.067383
v 2.778809 0.000000 887.863892
v 2.778809 0.000000 1163.769775
v 2.778809 -0.000000 769.587402
v 185.458801 -0.000000 769.587402
v 185.458801 0.000000 1163.769775
v 185.458801 0.000000 887.863892
v 4.400085 0.100000 769.487427
v 4.400085 0.100000 775.090210
v 183.837555 0.100000 775.090210
v 183.837555 0.100000 769.487427
v 4.400085 0.684567 769.537415
v 4.400085 0.684567 775.040222
v 183.837555 0.684567 775.040222
v 183.837555 0.684567 769.537415
v 183.837555 237.576324 769.487427
v 183.837555 237.576324 775.090210
v 4.400085 237.576324 775.090210
v 4.400085 237.576324 769.487427
v 183.837555 236.991760 769.537415
v 183.837555 236.991760 775.040222
v 4.400085 236.991760 775.040222
v 4.400085 236.991760 769.537415
v 185.873764 237.676331 1163.769775
v 185.873749 237.676331 887.863892
v 197.838577 237.676331 1163.769775
v 197.838577 237.676331 887.863892
v 185.873764 0.000000 1257.167480
v 185.873764 237.676331 1257.167480
v 185.873764 237.676331 769.487549
v 185.873764 0.000000 769.487549
v 185.873764 237.676331 887.863892
v 185.873764 0.000000 887.863892
v 185.873764 237.676331 1163.769775
v 185.873764 0.000000 1163.769775
v 197.838577 237.676331 1163.769775
v 197.838577 0.000000 1163.769775
v 197.838577 237.676331 887.863892
v 197.838577 0.000000 887.863892
v 184.252502 40.215851 1257.167480
v 184.252502 43.083542 1257.167480
v 185.873749 43.083542 1257.167480
v 184.252502 43.083542 769.487427
v 185.873749 43.083542 769.487427
v 184.252502 40.215851 769.487427
v 185.873749 40.215851 769.487427
v 185.873749 40.215851 1257.167480
v 184.252502 43.083542 889.485168
v 185.873749 43.083542 887.863892
v 184.252502 40.215851 889.485168
v 185.873749 40.215851 887.863892
v 197.838577 43.083542 887.863892
v 196.217331 43.083542 889.485168
v 196.217331 40.215851 889.485168
v 197.838577 40.215851 887.863892
v 197.838577 43.083542 1163.769775
v 196.217331 43.083542 1162.148560
v 196.217331 40.215851 1162.148560
v 197.838577 40.215851 1163.769775
v 184.252502 43.083542 1162.148560
v 185.873749 43.083542 1163.769775
v 184.252502 40.215851 1162.148560
v 185.873749 40.215851 1163.769775
v 184.252502 192.156723 1257.167480
v 184.252502 195.024414 1257.167480
v 185.873749 195.024414 1257.167480
v 184.252502 195.024414 769.487427
v 185.873749 195.024414 769.487427
v 184.252502 192.156723 769.487427
v 185.873749 192.156723 769.487427
v 185.873749 192.156723 1257.167480
v 184.252502 195.024414 889.485168
v 185.873749 195.024414 887.863892
v 184.252502 192.156723 889.485168
v 185.873749 192.156723 887.863892
v 197.838577 195.024414 887.863892
v 196.217331 195.024414 889.485168
v 196.217331 192.156723 889.485168
v 197.838577 192.156723 887.863892
v 197.838577 195.024414 1163.769775
v 196.217331 195.024414 1162.148560
v 196.217331 192.156723 1162.148560
v 197.838577 192.156723 1163.769775
v 184.252502 195.024414 1162.148560
v 185.873749 195.024414 1163.769775
v 184.252502 192.156723 1162.148560
v 185.873749 192.156723 1163.769775
v 184.252502 234.808640 1257.167480
v 184.252502 237.676331 1257.167480
v 184.252502 237.676331 769.487427
v 184.252502 234.808640 769.487427
v 185.873749 234.808640 769.487427
v 185.873749 234.808640 1257.167480
v 184.252502 237.676331 889.485168
v 184.252502 234.808640 889.485168
v 185.873749 234.808640 887.863892
v 196.217331 237.676331 889.485168
v 196.217331 234.808640 889.485168
v 197.838577 234.808640 887.863892
v 196.217331 237.676331 1162.148560
v 196.217331 234.808640 1162.148560
v 197.838577 234.808640 1163.769775
v 184.252502 237.676331 1162.148560
v 184.252502 234.808640 1162.148560
v 185.873749 234.808640 1163.769775
v 184.252502 0.000000 1257.167480
v 184.252502 2.867691 1257.167480
v 185.873749 2.867691 1257.167480
v 184.252502 2.867691 769.487427
v 185.873749 2.867691 769.487427
v 184.252502 0.000000 769.487427
v 184.252502 2.867691 889.485168
v 185.873749 2.867691 887.863892
v 184.252502 0.000000 889.485168
v 197.838577 2.867691 887.863892
v 196.217331 2.867691 889.485168
v 196.217331 0.000000 889.485168
v 197.838577 2.867691 1163.769775
v 196.217331 2.867691 1162.148560
v 196.217331 0.000000 1162.148560
v 184.252502 2.867691 1162.148560
v 185.873749 2.867691 1163.769775
v 184.252502 0.000000 1162.148560
v 185.873749 0.000000 887.863892
v 185.873749 0.000000 1163.769775
v 197.838577 0.000000 887.863892
v 197.838577 0.000000 1163.769775
v 185.873764 2.867695 769.487427
v 185.873764 2.867695 775.090210
v 185.873749 234.808640 775.090210
v 185.873749 234.808640 769.487427
v 185.139191 2.867688 769.487427
v 185.139191 2.867688 775.090210
v 185.139191 234.808655 775.090210
v 185.139191 234.808655 769.487427
v 184.934662 234.808640 886.609619
v 185.873749 234.808640 886.609619
v 184.934662 2.867692 886.609619
v 185.873749 2.867692 886.609619
v 184.934662 234.808640 888.806152
v 184.934662 2.867692 888.806152
v 187.133850 234.808640 887.863892
v 187.133850 234.808640 888.806152
v 187.133850 2.867692 888.806152
v 187.133850 2.867692 887.863892
v 187.132507 234.808640 1162.830688
v 187.132507 234.808640 1163.769775
v 187.132507 2.867692 1162.830688
v 187.132507 2.867692 1163.769775
v 184.936005 234.808640 1162.830688
v 184.936005 2.867692 1162.830688
v 185.878204 234.808640 1165.029907
v 184.936005 234.808640 1165.029907
v 184.936005 2.867692 1165.029907
v 185.878204 2.867692 1165.029907
vt 0.787729 0.012603
vt 0.958504 0.012603
vt 0.958504 0.276434
vt 0.787729 0.276434
vt 0.254956 0.012603
vt 0.389696 0.012603
vt 0.389696 0.276434
vt 0.254956 0.276434
vt 0.297188 0.858569
vt 0.297141 0.992874
vt 0.034160 0.992783
vt 0.034207 0.858478
vt 0.297324 0.461817
vt 0.034343 0.461726
vt 0.297382 0.295761
vt 0.034400 0.295671
vt 0.041329 0.310294
vt 0.049381 0.310297
vt 0.049290 0.573103
vt 0.041239 0.573100
vt 0.050436 0.310297
vt 0.050346 0.573103
vt 0.040183 0.573100
vt 0.040274 0.310294
vt 0.974974 0.476658
vt 0.983025 0.476661
vt 0.982935 0.739467
vt 0.974883 0.739464
vt 0.984081 0.476661
vt 0.983990 0.739467
vt 0.973828 0.739464
vt 0.973918 0.476658
vt 0.389696 0.276434
vt 0.787729 0.276434
vt 0.787729 0.293695
vt 0.389696 0.293694
vt 0.950508 0.306089
vt 0.950508 0.629757
vt 0.830402 0.629757
vt 0.830402 0.306089
vt 0.475596 0.306089
vt 0.475596 0.629757
vt 0.323368 0.629757
vt 0.323368 0.306089
vt 0.830402 0.306089
vt 0.830402 0.629757
vt 0.475596 0.629757
vt 0.475596 0.306089
vt 0.692955 0.307748
vt 0.692955 0.626643
vt 0.681163 0.626643
vt 0.681163 0.307748
vt 0.508827 0.626525
vt 0.508827 0.307630
vt 0.521103 0.307630
vt 0.521103 0.626525
vt 0.970425 0.542029
vt 0.973534 0.542027
vt 0.973575 0.700013
vt 0.970441 0.702774
vt 0.963805 0.790563
vt 0.963752 0.587495
vt 0.969081 0.587508
vt 0.969068 0.790575
vt 0.961713 0.700043
vt 0.961808 0.542076
vt 0.964915 0.542057
vt 0.964848 0.702793
vt 0.972065 0.590263
vt 0.972045 0.790575
vt 0.960767 0.590242
vt 0.960828 0.790554
vt 0.974101 0.839385
vt 0.970508 0.843078
vt 0.970140 0.816193
vt 0.973733 0.812500
vt 0.964064 0.843167
vt 0.963696 0.816281
vt 0.960371 0.839573
vt 0.960003 0.812688
vt 0.974955 0.878613
vt 0.970859 0.875804
vt 0.970859 0.414161
vt 0.974956 0.411352
vt 0.963480 0.875765
vt 0.963479 0.414200
vt 0.959500 0.878509
vt 0.959501 0.411457
vt 0.974774 0.539302
vt 0.971058 0.535732
vt 0.970520 0.508849
vt 0.974236 0.512419
vt 0.964615 0.535861
vt 0.964077 0.508978
vt 0.961045 0.539577
vt 0.960507 0.512693
vt 0.970425 0.542029
vt 0.973534 0.542027
vt 0.973575 0.700013
vt 0.970441 0.702774
vt 0.963805 0.790563
vt 0.963752 0.587495
vt 0.969081 0.587508
vt 0.969068 0.790575
vt 0.961713 0.700043
vt 0.961808 0.542076
vt 0.964915 0.542057
vt 0.964848 0.702793
vt 0.972065 0.590263
vt 0.972045 0.790575
vt 0.960767 0.590242
vt 0.960828 0.790554
vt 0.974101 0.839385
vt 0.970508 0.843078
vt 0.970140 0.816193
vt 0.973733 0.812500
vt 0.964064 0.843167
vt 0.963696 0.816281
vt 0.960371 0.839573
vt 0.960003 0.812688
vt 0.974955 0.878613
vt 0.970859 0.875804
vt 0.970859 0.414161
vt 0.974956 0.411352
vt 0.963480 0.875765
vt 0.963479 0.414200
vt 0.959500 0.878509
vt 0.959501 0.411457
vt 0.974774 0.539302
vt 0.971058 0.535732
vt 0.970520 0.508849
vt 0.974236 0.512419
vt 0.964615 0.535861
vt 0.964077 0.508978
vt 0.961045 0.539577
vt 0.960507 0.512693
vt 0.963805 0.790563
vt 0.963752 0.587495
vt 0.969081 0.587508
vt 0.969068 0.790575
vt 0.961713 0.700043
vt 0.961808 0.542076
vt 0.964915 0.542057
vt 0.964848 0.702793
vt 0.960767 0.590242
vt 0.960828 0.790554
vt 0.970508 0.843078
vt 0.964064 0.843167
vt 0.963696 0.816281
vt 0.970140 0.816193
vt 0.960371 0.839573
vt 0.960003 0.812688
vt 0.970859 0.875804
vt 0.963480 0.875765
vt 0.963479 0.414200
vt 0.970859 0.414161
vt 0.959500 0.878509
vt 0.959501 0.411457
vt 0.971058 0.535732
vt 0.964615 0.535861
vt 0.964077 0.508978
vt 0.970520 0.508849
vt 0.961045 0.539577
vt 0.960507 0.512693
vt 0.970425 0.542029
vt 0.970441 0.702774
vt 0.970425 0.542029
vt 0.973534 0.542027
vt 0.973575 0.700013
vt 0.970441 0.702774
vt 0.963805 0.790563
vt 0.963752 0.587495
vt 0.969081 0.587508
vt 0.969068 0.790575
vt 0.972065 0.590263
vt 0.972045 0.790575
vt 0.974101 0.839385
vt 0.970508 0.843078
vt 0.970140 0.816193
vt 0.973733 0.812500
vt 0.964064 0.843167
vt 0.963696 0.816281
vt 0.974955 0.878613
vt 0.970859 0.875804
vt 0.970859 0.414161
vt 0.974956 0.411352
vt 0.963480 0.875765
vt 0.963479 0.414200
vt 0.974774 0.539302
vt 0.971058 0.535732
vt 0.970520 0.508849
vt 0.974236 0.512419
vt 0.964615 0.535861
vt 0.964077 0.508978
vt 0.964848 0.702793
vt 0.964915 0.542057
vt 0.034343 0.461726
vt 0.034207 0.858478
vt 0.017001 0.858472
vt 0.017138 0.461720
vt 0.968479 0.315767
vt 0.984182 0.315772
vt 0.983959 0.965856
vt 0.968255 0.965850
vt 0.986241 0.315773
vt 0.986018 0.965856
vt 0.966196 0.965850
vt 0.966420 0.315766
vt 0.970007 0.315940
vt 0.976137 0.315940
vt 0.976137 0.963275
vt 0.970007 0.963275
vt 0.982275 0.315940
vt 0.982275 0.963275
vt 0.984905 0.315940
vt 0.984905 0.963275
vt 0.967386 0.963275
vt 0.967386 0.315940
vt 0.970007 0.315940
vt 0.976137 0.315940
vt 0.976137 0.963275
vt 0.970007 0.963275
vt 0.982275 0.315940
vt 0.982275 0.963275
vt 0.984905 0.315940
vt 0.984905 0.963275
vt 0.967386 0.963275
vt 0.967386 0.315940
vn 0.000000 -1.000000 0.000000
vn 0.000000 -1.000000 0.000000
vn 0.000000 -1.000000 0.000000
vn 0.000000 -1.000000 0.000000
vn 0.000000 -1.000000 0.000000
vn 0.000000 -1.000000 0.000000
vn 0.000000 -1.000000 0.000000
vn 0.000000 -1.000000 0.000000
vn 0.000000 1.000000 -0.000000
vn 0.000000 1.000000 -0.000000
vn 0.000000 1.000000 -0.000000
vn 0.000000 1.000000 -0.000000
vn 0.000000 1.000000 -0.000000
vn 0.000000 1.000000 -0.000000
vn 0.000000 1.000000 -0.000000
vn 0.000000 1.000000 -0.000000
vn 0.000000 1.000000 0.000000
vn 0.000000 1.000000 0.000000
vn 0.000000 1.000000 0.000000
vn 0.000000 1.000000 0.000000
vn 0.000000 0.085202 0.996364
vn 0.000000 0.085202 0.996364
vn 0.000000 0.085202 0.996364
vn 0.000000 0.085202 0.996364
vn 0.000000 0.085202 -0.996364
vn 0.000000 0.085202 -0.996364
vn 0.000000 0.085202 -0.996364
vn 0.000000 0.085202 -0.996364
vn 0.000000 -1.000000 0.000000
vn 0.000000 -1.000000 0.000000
vn 0.000000 -1.000000 0.000000
vn 0.000000 -1.000000 0.000000
vn 0.000000 -0.085204 0.996364
vn 0.000000 -0.085204 0.996364
vn 0.000000 -0.085204 0.996364
vn 0.000000 -0.085204 0.996364
vn 0.000000 -0.085204 -0.996364
vn 0.000000 -0.085204 -0.996364
vn 0.000000 -0.085204 -0.996364
vn 0.000000 -0.085204 -0.996364
vn 0.000000 -1.000000 0.000000
vn 0.000000 -1.000000 0.000000
vn 0.000000 -1.000000 0.000000
vn 0.000000 -1.000000 0.000000
vn -1.000000 0.000000 0.000000
vn -1.000000 0.000000 0.000000
vn -1.000000 0.000000 0.000000
vn -1.000000 0.000000 0.000000
vn -1.000000 0.000000 0.000000
vn -1.000000 0.000000 0.000000
vn -1.000000 0.000000 0.000000
vn -1.000000 0.000000 0.000000
vn -1.000000 0.000000 0.000000
vn -1.000000 0.000000 0.000000
vn -1.000000 0.000000 0.000000
vn -1.000000 0.000000 0.000000
vn 0.000000 0.000000 -1.000000
vn 0.000000 0.000000 -1.000000
vn 0.000000 0.000000 -1.000000
vn 0.000000 0.000000 -1.000000
vn 0.000000 0.000000 1.000000
vn 0.000000 0.000000 1.000000
vn 0.000000 0.000000 1.000000
vn 0.000000 0.000000 1.000000
vn 0.000000 1.000000 0.000000
vn 0.000000 1.000000 0.000000
vn 0.000000 1.000000 0.000000
vn 0.000000 1.000000 0.000000
vn -1.000000 0.000000 0.000000
vn -1.000000 0.000000 0.000000
vn -1.000000 0.000000 0.000000
vn -1.000000 0.000000 0.000000
vn 0.000000 -1.000000 0.000000
vn 0.000000 -1.000000 0.000000
vn 0.000000 -1.000000 0.000000
vn 0.000000 -1.000000 0.000000
vn 0.000000 1.000000 0.000000
vn 0.000000 1.000000 0.000000
vn 0.000000 1.000000 0.000000
vn 0.000000 1.000000 0.000000
vn 0.000000 -1.000000 0.000000
vn 0.000000 -1.000000 0.000000
vn 0.000000 -1.000000 0.000000
vn 0.000000 -1.000000 0.000000
vn 0.000000 1.000000 0.000000
vn 0.000000 1.000000 0.000000
vn 0.000000 1.000000 0.000000
vn 0.000000 1.000000 0.000000
vn 0.000000 0.000000 1.000000
vn 0.000000 0.000000 1.000000
vn 0.000000 0.000000 1.000000
vn 0.000000 0.000000 1.000000
vn 0.000000 -1.000000 0.000000
vn 0.000000 -1.000000 0.000000
vn 0.000000 -1.000000 0.000000
vn 0.000000 -1.000000 0.000000
vn 0.000000 1.000000 0.000000
vn 0.000000 1.000000 0.000000
vn 0.000000 1.000000 0.000000
vn 0.000000 1.000000 0.000000
vn -1.000000 0.000000 0.000000
vn -1.000000 0.000000 0.000000
vn -1.000000 0.000000 0.000000
vn -1.000000 0.000000 0.000000
vn 0.000000 -1.000000 0.000000
vn 0.000000 -1.000000 0.000000
vn 0.000000 -1.000000 0.000000
vn 0.000000 -1.000000 0.000000
vn 0.000000 1.000000 0.000000
vn 0.000000 1.000000 0.000000
vn 0.000000 1.000000 0.000000
vn 0.000000 1.000000 0.000000
vn 0.000000 0.000000 -1.000000
vn 0.000000 0.000000 -1.000000
vn 0.000000 0.000000 -1.000000
vn 0.000000 0.000000 -1.000000
vn 0.000000 -1.000000 0.000000
vn 0.000000 -1.000000 0.000000
vn 0.000000 -1.000000 0.000000
vn 0.000000 -1.000000 0.000000
vn -1.000000 0.000000 0.000000
vn -1.000000 0.000000 0.000000
vn -1.000000 0.000000 0.000000
vn -1.000000 0.000000 0.000000
vn 0.000000 1.000000 0.000000
vn 0.000000 1.000000 0.000000
vn 0.000000 1.000000 0.000000
vn 0.000000 1.000000 0.000000
vn -1.000000 0.000000 0.000000
vn -1.000000 0.000000 0.000000
vn -1.000000 0.000000 0.000000
vn -1.000000 0.000000 0.000000
vn 0.000000 -1.000000 0.000000
vn 0.000000 -1.000000 0.000000
vn 0.000000 -1.000000 0.000000
vn 0.000000 -1.000000 0.000000
vn 0.000000 1.000000 0.000000
vn 0.000000 1.000000 0.000000
vn 0.000000 1.000000 0.000000
vn 0.000000 1.000000 0.000000
vn 0.000000 -1.000000 0.000000
vn 0.000000 -1.000000 0.000000
vn 0.000000 -1.000000 0.000000
vn 0.000000 -1.000000 0.000000
vn 0.000000 1.000000 0.000000
vn 0.000000 1.000000 0.000000
vn 0.000000 1.000000 0.000000
vn 0.000000 1.000000 0.000000
vn 0.000000 0.000000 1.000000
vn 0.000000 0.000000 1.000000
vn 0.000000 0.000000 1.000000
vn 0.000000 0.000000 1.000000
vn 0.000000 -1.000000 0.000000
vn 0.000000 -1.000000 0.000000
vn 0.000000 -1.000000 0.000000
vn 0.000000 -1.000000 0.000000
vn 0.000000 1.000000 0.000000
vn 0.000000 1.000000 0.000000
vn 0.000000 1.000000 0.000000
vn 0.000000 1.000000 0.000000
vn -1.000000 0.000000 0.000000
vn -1.000000 0.000000 0.000000
vn -1.000000 0.000000 0.000000
vn -1.000000 0.000000 0.000000
vn 0.000000 -1.000000 0.000000
vn 0.000000 -1.000000 0.000000
vn 0.000000 -1.000000 0.000000
vn 0.000000 -1.000000 0.000000
vn 0.000000 1.000000 0.000000
vn 0.000000 1.000000 0.000000
vn 0.000000 1.000000 0.000000
vn 0.000000 1.000000 0.000000
vn 0.000000 0.000000 -1.000000
vn 0.000000 0.000000 -1.000000
vn 0.000000 0.000000 -1.000000
vn 0.000000 0.000000 -1.000000
vn 0.000000 -1.000000 0.000000
vn 0.000000 -1.000000 0.000000
vn 0.000000 -1.000000 0.000000
vn 0.000000 -1.000000 0.000000
vn -1.000000 0.000000 0.000000
vn -1.000000 0.000000 0.000000
vn -1.000000 0.000000 0.000000
vn -1.000000 0.000000 0.000000
vn -1.000000 0.000000 0.000000
vn -1.000000 0.000000 0.000000
vn -1.000000 0.000000 0.000000
vn -1.000000 0.000000 0.000000
vn 0.000000 -1.000000 0.000000
vn 0.000000 -1.000000 0.000000
vn 0.000000 -1.000000 0.000000
vn 0.000000 -1.000000 0.000000
vn 0.000000 -1.000000 0.000000
vn 0.000000 -1.000000 0.000000
vn 0.000000 -1.000000 0.000000
vn 0.000000 -1.000000 0.000000
vn 0.000000 0.000000 1.000000
vn 0.000000 0.000000 1.000000
vn 0.000000 0.000000 1.000000
vn 0.000000 0.000000 1.000000
vn 0.000000 -1.000000 0.000000
vn 0.000000 -1.000000 0.000000
vn 0.000000 -1.000000 0.000000
vn 0.000000 -1.000000 0.000000
vn -1.000000 0.000000 0.000000
vn -1.000000 0.000000 0.000000
vn -1.000000 0.000000 0.000000
vn -1.000000 0.000000 0.000000
vn 0.000000 -1.000000 0.000000
vn 0.000000 -1.000000 0.000000
vn 0.000000 -1.000000 0.000000
vn 0.000000 -1.000000 0.000000
vn 0.000000 0.000000 -1.000000
vn 0.000000 0.000000 -1.000000
vn 0.000000 0.000000 -1.000000
vn 0.000000 0.000000 -1.000000
vn 0.000000 -1.000000 0.000000
vn 0.000000 -1.000000 0.000000
vn 0.000000 -1.000000 0.000000
vn 0.000000 -1.000000 0.000000
vn -1.000000 0.000000 0.000000
vn -1.000000 0.000000 0.000000
vn -1.000000 0.000000 0.000000
vn -1.000000 0.000000 0.000000
vn 0.000000 1.000000 0.000000
vn 0.000000 1.000000 0.000000
vn 0.000000 1.000000 0.000000
vn 0.000000 1.000000 0.000000
vn -1.000000 0.000000 0.000000
vn -1.000000 0.000000 0.000000
vn -1.000000 0.000000 0.000000
vn -1.000000 0.000000 0.000000
vn 0.000000 1.000000 0.000000
vn 0.000000 1.000000 0.000000
vn 0.000000 1.000000 0.000000
vn 0.000000 1.000000 0.000000
vn 0.000000 1.000000 0.000000
vn 0.000000 1.000000 0.000000
vn 0.000000 1.000000 0.000000
vn 0.000000 1.000000 0.000000
vn 0.000000 0.000000 1.000000
vn 0.000000 0.000000 1.000000
vn 0.000000 0.000000 1.000000
vn 0.000000 0.000000 1.000000
vn 0.000000 1.000000 0.000000
vn 0.000000 1.000000 0.000000
vn 0.000000 1.000000 0.000000
vn 0.000000 1.000000 0.000000
vn -1.000000 0.000000 0.000000
vn -1.000000 0.000000 0.000000
vn -1.000000 0.000000 0.000000
vn -1.000000 0.000000 0.000000
vn 0.000000 1.000000 0.000000
vn 0.000000 1.000000 0.000000
vn 0.000000 1.000000 0.000000
vn 0.000000 1.000000 0.000000
vn 0.000000 0.000000 -1.000000
vn 0.000000 0.000000 -1.000000
vn 0.000000 0.000000 -1.000000
vn 0.000000 0.000000 -1.000000
vn -1.000000 0.000000 0.000000
vn -1.000000 0.000000 0.000000
vn -1.000000 0.000000 0.000000
vn -1.000000 0.000000 0.000000
vn 0.000000 1.000000 0.000000
vn 0.000000 1.000000 0.000000
vn 0.000000 1.000000 0.000000
vn 0.000000 1.000000 0.000000
vn -1.000000 0.000000 0.000000
vn -1.000000 0.000000 0.000000
vn -1.000000 0.000000 0.000000
vn -1.000000 0.000000 0.000000
vn -0.000030 0.000000 1.000000
vn -0.000030 0.000000 1.000000
vn -0.000030 0.000000 1.000000
vn -0.000030 0.000000 1.000000
vn -0.000023 0.000000 -1.000000
vn -0.000023 0.000000 -1.000000
vn -0.000023 0.000000 -1.000000
vn -0.000023 0.000000 -1.000000
vn -1.000000 0.000000 0.000000
vn -1.000000 0.000000 0.000000
vn -1.000000 0.000000 0.000000
vn -1.000000 0.000000 0.000000
vn 0.000000 0.000000 1.000000
vn 0.000000 0.000000 1.000000
vn 0.000000 0.000000 1.000000
vn 0.000000 0.000000 1.000000
vn 1.000000 0.000000 0.000000
vn 1.000000 0.000000 0.000000
vn 1.000000 0.000000 0.000000
vn 1.000000 0.000000 0.000000
vn 0.000000 0.000000 -1.000000
vn 0.000000 0.000000 -1.000000
vn 0.000000 0.000000 -1.000000
vn 0.000000 0.000000 -1.000000
vn 0.000000 0.000000 -1.000000
vn 0.000000 0.000000 -1.000000
vn 0.000000 0.000000 -1.000000
vn 0.000000 0.000000 -1.000000
vn -1.000000 0.000000 0.000000
vn -1.000000 0.000000 0.000000
vn -1.000000 0.000000 0.000000
vn -1.000000 0.000000 0.000000
vn 0.000000 0.000000 1.000000
vn 0.000000 0.000000 1.000000
vn 0.000000 0.000000 1.000000
vn 0.000000 0.000000 1.000000
vn 1.000000 0.000000 0.000000
vn 1.000000 0.000000 0.000000
vn 1.000000 0.000000 0.000000
vn 1.000000 0.000000 0.000000
s 1
g wall_01_rt
usemtl blinn1SG
f 6/1/1 3/2/2 2/3/3 7/4/4
f 4/5/5 5/6/6 8/7/7 1/8/8
f 5/6/6 6/1/1 7/4/4 8/7/7
s 2
f 12/9/9 10/10/10 9/11/11 15/12/12
f 11/13/13 12/9/9 15/12/12 16/14/14
f 13/15/15 11/13/13 16/14/14 14/16/16
s off
f 21/17/17 22/18/18 23/19/19 24/20/20
f 18/21/21 19/22/22 23/19/23 22/18/24
f 20/23/25 17/24/26 21/17/27 24/20/28
f 29/25/29 30/26/30 31/27/31 32/28/32
f 26/29/33 27/30/34 31/27/35 30/26/36
f 28/31/37 25/32/38 29/25/39 32/28/40
f 33/33/41 34/34/42 36/35/43 35/36/44
f 37/37/45 38/38/46 43/39/47 44/40/48
f 42/41/49 41/42/50 39/43/51 40/44/52
f 46/45/53 45/46/54 47/47/55 48/48/56
f 44/49/57 43/50/58 45/51/59 46/52/60
f 41/53/61 42/54/62 48/55/63 47/56/64
f 50/57/65 51/58/66 70/59/67 69/60/68
f 54/61/69 59/62/70 57/63/71 52/64/72
f 72/65/73 56/66/74 49/67/75 71/68/76
f 57/63/77 58/69/78 53/70/79 52/64/80
f 60/71/81 59/62/82 54/61/83 55/72/84
f 58/73/85 57/74/86 62/75/87 61/76/88
f 57/74/89 59/77/90 63/78/91 62/75/92
f 59/77/93 60/79/94 64/80/95 63/78/96
f 61/81/97 62/82/98 66/83/99 65/84/100
f 62/82/101 63/85/102 67/86/103 66/83/104
f 63/85/105 64/87/106 68/88/107 67/86/108
f 65/89/109 66/90/110 69/91/111 70/92/112
f 66/90/113 67/93/114 71/94/115 69/91/116
f 67/93/117 68/95/118 72/96/119 71/94/120
f 50/57/121 69/60/122 71/68/123 49/67/124
f 74/97/125 75/98/126 94/99/127 93/100/128
f 78/101/129 83/102/130 81/103/131 76/104/132
f 96/105/133 80/106/134 73/107/135 95/108/136
f 81/103/137 82/109/138 77/110/139 76/104/140
f 84/111/141 83/102/142 78/101/143 79/112/144
f 82/113/145 81/114/146 86/115/147 85/116/148
f 81/114/149 83/117/150 87/118/151 86/115/152
f 83/117/153 84/119/154 88/120/155 87/118/156
f 85/121/157 86/122/158 90/123/159 89/124/160
f 86/122/161 87/125/162 91/126/163 90/123/164
f 87/125/165 88/127/166 92/128/167 91/126/168
f 89/129/169 90/130/170 93/131/171 94/132/172
f 90/130/173 91/133/174 95/134/175 93/131/176
f 91/133/177 92/135/178 96/136/179 95/134/180
f 74/97/181 93/100/182 95/108/183 73/107/184
f 100/137/185 104/138/186 103/139/187 99/140/188
f 114/141/189 102/142/190 97/143/191 113/144/192
f 105/145/193 104/138/194 100/137/195 101/146/196
f 103/147/197 104/148/198 107/149/199 106/150/200
f 104/148/201 105/151/202 108/152/203 107/149/204
f 106/153/205 107/154/206 110/155/207 109/156/208
f 107/154/209 108/157/210 111/158/211 110/155/212
f 109/159/213 110/160/214 113/161/215 112/162/216
f 110/160/217 111/163/218 114/164/219 113/161/220
f 98/165/221 112/166/222 113/144/223 97/143/224
f 116/167/225 117/168/226 131/169/227 130/170/228
f 120/171/229 123/172/230 121/173/231 118/174/232
f 121/173/233 122/175/234 119/176/235 118/174/236
f 122/177/237 121/178/238 125/179/239 124/180/240
f 121/178/241 123/181/242 126/182/243 125/179/244
f 124/183/245 125/184/246 128/185/247 127/186/248
f 125/184/249 126/187/250 129/188/251 128/185/252
f 127/189/253 128/190/254 130/191/255 131/192/256
f 128/190/257 129/193/258 132/194/259 130/191/260
f 116/167/261 130/170/262 132/195/263 115/196/264
f 133/197/265 134/198/266 136/199/267 135/200/268
f 141/201/269 142/202/270 143/203/271 144/204/272
f 138/205/273 139/206/274 143/203/275 142/202/276
f 140/207/277 137/208/278 141/201/279 144/204/280
f 147/209/281 150/210/282 149/211/283 145/212/284
f 149/211/285 150/210/286 153/213/287 152/214/288
f 153/213/289 154/215/290 151/216/291 152/214/292
f 145/212/293 146/217/294 148/218/295 147/209/296
f 157/219/297 160/220/298 159/221/299 155/222/300
f 159/221/301 160/220/302 163/223/303 162/224/304
f 163/223/305 164/225/306 161/226/307 162/224/308
f 155/222/309 156/227/310 158/228/311 157/219/312
