# This file uses feet as units for non-parametric coordinates.

mtllib wall_01_lft.mtl
g default
v -302.783875 2.967694 769.487427
v -302.783875 2.967694 775.090210
v -302.783813 234.708649 775.090210
v -302.783813 234.708649 769.487427
v -302.199280 2.967689 769.537415
v -302.199280 2.967689 775.040222
v -302.199280 234.708649 775.040222
v -302.199280 234.708649 769.537415
v -301.162598 0.100000 769.487427
v -301.162598 0.100000 775.090210
v -121.725082 0.100000 775.090210
v -121.725082 0.100000 769.487427
v -301.162598 0.684567 769.537415
v -301.162598 0.684567 775.040222
v -121.725082 0.684567 775.040222
v -121.725082 0.684567 769.537415
v -121.725082 237.576324 769.487427
v -121.725082 237.576324 775.090210
v -301.162598 237.576324 775.090210
v -301.162598 237.576324 769.487427
v -121.725082 236.991760 769.537415
v -121.725082 236.991760 775.040222
v -301.162598 236.991760 775.040222
v -301.162598 236.991760 769.537415
v -302.883850 0.100000 1257.067505
v -302.883850 237.543732 1256.914185
v -302.883850 237.555420 769.826660
v -302.883850 0.100000 769.587524
v -302.950500 0.066667 1012.519043
v -302.950500 0.066667 1091.635986
v -302.933838 151.022186 1091.629883
v -302.933838 151.019699 1012.523315
v -313.049194 0.066667 1012.585693
v -313.049194 0.066667 1091.569336
v -313.049194 150.970657 1091.569336
v -313.049194 150.970657 1012.585693
v -301.312622 40.265850 1257.067505
v -301.312622 43.033543 1257.067505
v -302.783813 43.083542 1257.067505
v -302.783813 40.215851 1257.067505
v -301.256409 43.033543 1097.206177
v -302.631348 43.083542 1096.471191
v -301.256409 40.265854 1097.206177
v -302.631348 40.215851 1096.471191
v -300.653625 43.033543 1097.072144
v -301.235962 43.083542 1096.370239
v -300.653625 40.265854 1097.072144
v -301.235962 40.215851 1096.370239
v -300.653625 43.033543 1090.902222
v -301.235962 43.083542 1091.604126
v -300.653625 40.265854 1090.902222
v -301.235962 40.215851 1091.604126
v -302.783813 43.033543 1090.833252
v -302.783813 43.083542 1091.536011
v -302.783813 40.265854 1090.833252
v -302.783813 40.215851 1091.536011
v -301.262573 0.100002 1257.067505
v -301.312622 2.817696 1257.067505
v -302.783813 2.867696 1257.067505
v -301.312622 0.100002 1096.388428
v -301.329285 2.801029 1096.405029
v -302.783813 2.817696 1096.388428
v -302.783813 0.100002 1096.338379
v -301.312622 2.817696 769.587402
v -302.783813 2.867696 769.587402
v -301.262573 0.100002 769.587402
v -302.783813 2.817696 1007.936890
v -301.329285 2.801029 1007.920227
v -301.312622 0.100002 1007.936890
v -302.783813 0.100002 1007.986877
v -301.312622 234.858612 1257.067505
v -301.262573 237.576309 1257.067505
v -301.262573 237.576309 769.587402
v -301.312622 234.858612 769.587402
v -302.783813 234.808609 769.587402
v -302.783813 234.808609 1257.067505
v -301.312622 192.206726 1257.067505
v -301.312622 194.974411 1257.067505
v -302.783813 195.024414 1257.067505
v -301.312622 194.974411 769.587402
v -302.783813 195.024414 769.587402
v -301.312622 192.206726 769.587402
v -302.783813 192.156723 769.587402
v -302.783813 192.156723 1257.067505
v -301.312622 0.100008 1096.288330
v -301.312622 0.100008 1091.686035
v -302.783813 0.100008 1091.635986
v -302.783813 0.100008 1096.338379
v -301.312622 151.026978 1091.625610
v -302.783813 150.987335 1091.585938
v -301.312622 155.629364 1096.228027
v -302.783813 155.689713 1096.288330
v -301.312622 151.026978 1012.529358
v -302.783813 150.987335 1012.569031
v -301.312622 155.629364 1007.927002
v -302.783813 155.689713 1007.866638
v -302.783813 0.100015 1012.519043
v -301.312622 0.100015 1012.468994
v -301.312622 0.100015 1007.866638
v -302.783813 0.100015 1007.816650
v -301.312622 40.265850 769.587402
v -301.312622 43.033543 769.587402
v -302.783813 43.083542 769.587402
v -302.783813 40.215851 769.587402
v -301.256409 43.033543 1006.948853
v -302.631348 43.083542 1007.683838
v -301.256409 40.265854 1006.948853
v -302.631348 40.215851 1007.683838
v -300.653625 43.033543 1007.082825
v -301.235962 43.083542 1007.784790
v -300.653625 40.265854 1007.082825
v -301.235962 40.215851 1007.784790
v -300.653625 43.033543 1013.252869
v -301.235962 43.083542 1012.550903
v -300.653625 40.265854 1013.252808
v -301.235962 40.215851 1012.550903
v -302.783813 43.033543 1013.321777
v -302.783813 43.083542 1012.619019
v -302.783813 40.265854 1013.321777
v -302.783813 40.215851 1012.619019
v -301.322083 159.983826 1007.374146
v -302.794617 160.000488 1006.196899
v -302.794617 160.000488 1099.166504
v -301.322083 159.983826 1097.989258
v -302.794617 155.789719 1099.166504
v -301.322083 155.806381 1097.989258
v -301.322083 155.806381 1007.374146
v -302.794617 155.789719 1006.196899
v -300.108337 158.367386 1010.370117
v -301.187927 158.384048 1008.468628
v -301.187927 158.384048 1096.894775
v -300.108337 158.367386 1094.993286
v -301.187927 155.180954 1096.894775
v -300.108337 155.197617 1094.993286
v -300.108337 155.197617 1010.370117
v -301.187927 155.180954 1008.468628
v -120.103836 237.676331 1257.067505
v -120.103836 237.676331 769.587524
v -302.783813 237.676331 769.587524
v -302.783813 237.676331 1257.067505
v -302.783875 237.676331 1163.769775
v -302.783875 237.676331 887.863892
v -120.103836 237.676331 887.863892
v -120.103836 237.676331 1163.769775
v -120.103836 0.000000 1257.067383
v -302.783813 0.000000 1257.067383
v -302.783813 0.000000 887.863892
v -302.783813 0.000000 1163.769775
v -302.783813 -0.000000 769.587402
v -120.103836 -0.000000 769.587402
v -120.103836 0.000000 1163.769775
v -120.103836 0.000000 887.863892
vt 0.968479 0.315767
vt 0.968255 0.965850
vt 0.983959 0.965856
vt 0.984182 0.315772
vt 0.986241 0.315773
vt 0.986018 0.965856
vt 0.966196 0.965850
vt 0.966420 0.315766
vt 0.041329 0.310294
vt 0.049381 0.310297
vt 0.049290 0.573103
vt 0.041239 0.573100
vt 0.050436 0.310297
vt 0.050346 0.573103
vt 0.040183 0.573100
vt 0.040274 0.310294
vt 0.974974 0.476658
vt 0.983025 0.476661
vt 0.982935 0.739467
vt 0.974883 0.739464
vt 0.984081 0.476661
vt 0.983990 0.739467
vt 0.973828 0.739464
vt 0.973918 0.476658
vt 0.320520 0.649887
vt 0.533388 0.649856
vt 0.533417 0.844085
vt 0.320569 0.973556
vt 0.635159 0.844070
vt 0.947709 0.973463
vt 0.635130 0.649841
vt 0.947660 0.649795
vt 0.179554 0.103440
vt 0.179552 0.117058
vt 0.074260 0.117057
vt 0.074261 0.103440
vt 0.227411 0.102712
vt 0.227411 0.116328
vt 0.026404 0.116330
vt 0.026403 0.102710
vt 0.075390 0.116997
vt 0.075392 0.103379
vt 0.180682 0.103380
vt 0.180684 0.116997
vt 0.027533 0.116598
vt 0.027533 0.102978
vt 0.228540 0.102978
vt 0.228542 0.116597
vt 0.234592 0.267973
vt 0.017075 0.267973
vt 0.017075 0.154032
vt 0.234592 0.154032
vt 0.963438 0.335568
vt 0.963447 0.899967
vt 0.957768 0.902978
vt 0.957763 0.335570
vt 0.973479 0.899967
vt 0.973488 0.335568
vt 0.979158 0.902978
vt 0.979163 0.335570
vt 0.958062 0.676874
vt 0.961817 0.684088
vt 0.961803 0.687251
vt 0.958031 0.684072
vt 0.974548 0.684146
vt 0.974534 0.687309
vt 0.978369 0.676967
vt 0.978334 0.684165
vt 0.958652 0.671154
vt 0.961846 0.667331
vt 0.961846 0.696061
vt 0.958652 0.692238
vt 0.974704 0.667331
vt 0.974704 0.696061
vt 0.977898 0.671154
vt 0.977898 0.692238
vt 0.957974 0.680323
vt 0.961534 0.677325
vt 0.961418 0.687586
vt 0.957264 0.687463
vt 0.974244 0.677325
vt 0.974361 0.687586
vt 0.977804 0.680322
vt 0.978515 0.687463
vt 0.969724 0.510596
vt 0.966551 0.837836
vt 0.960944 0.837781
vt 0.964120 0.510541
vt 0.972395 0.837900
vt 0.975570 0.510653
vt 0.972322 0.843521
vt 0.966461 0.843447
vt 0.974404 0.908053
vt 0.968553 0.908037
vt 0.969837 0.421648
vt 0.975689 0.421660
vt 0.964226 0.421633
vt 0.962943 0.908022
vt 0.969864 0.415798
vt 0.964252 0.415779
vt 0.967894 0.954708
vt 0.971728 0.954706
vt 0.971728 0.336226
vt 0.967894 0.336224
vt 0.965739 0.336223
vt 0.965739 0.954709
vt 0.968663 0.318274
vt 0.968663 0.965708
vt 0.971228 0.965706
vt 0.971228 0.318277
vt 0.964157 0.965708
vt 0.964156 0.318275
vt 0.961704 0.318277
vt 0.961704 0.965706
vt 0.027894 0.063436
vt 0.027893 0.057428
vt 0.220844 0.057390
vt 0.226851 0.063400
vt 0.226851 0.065816
vt 0.027895 0.065852
vt 0.027893 0.055012
vt 0.220844 0.054973
vt 0.090368 0.057342
vt 0.090368 0.054927
vt 0.191320 0.054928
vt 0.191319 0.057342
vt 0.084371 0.063350
vt 0.197317 0.063350
vt 0.084371 0.065764
vt 0.197316 0.065764
vt 0.216994 0.063614
vt 0.216994 0.066031
vt 0.024042 0.065992
vt 0.024043 0.063576
vt 0.223001 0.057604
vt 0.024044 0.057567
vt 0.223001 0.055187
vt 0.024045 0.055151
vt 0.963438 0.335568
vt 0.957763 0.335570
vt 0.957768 0.902978
vt 0.963447 0.899967
vt 0.973479 0.899967
vt 0.973488 0.335568
vt 0.979158 0.902978
vt 0.979163 0.335570
vt 0.958062 0.676874
vt 0.958031 0.684072
vt 0.961803 0.687251
vt 0.961817 0.684088
vt 0.974534 0.687309
vt 0.974548 0.684146
vt 0.978334 0.684165
vt 0.978369 0.676967
vt 0.958652 0.671154
vt 0.958652 0.692238
vt 0.961846 0.696061
vt 0.961846 0.667331
vt 0.974704 0.696061
vt 0.974704 0.667331
vt 0.977898 0.692238
vt 0.977898 0.671154
vt 0.957974 0.680323
vt 0.957264 0.687463
vt 0.961418 0.687586
vt 0.961534 0.677325
vt 0.974361 0.687586
vt 0.974244 0.677325
vt 0.978515 0.687463
vt 0.977804 0.680322
vt 0.021358 0.070872
vt 0.231102 0.070873
vt 0.231102 0.064791
vt 0.021358 0.064791
vt 0.021358 0.048137
vt 0.021358 0.054220
vt 0.231102 0.054220
vt 0.231102 0.048137
vt 0.018719 0.054235
vt 0.018730 0.064812
vt 0.233731 0.064812
vt 0.233741 0.054235
vt 0.021358 0.070872
vt 0.231102 0.070873
vt 0.231102 0.064791
vt 0.021358 0.064791
vt 0.021358 0.048137
vt 0.021358 0.054220
vt 0.231102 0.054220
vt 0.231102 0.048137
vt 0.018719 0.054235
vt 0.018730 0.064812
vt 0.233731 0.064812
vt 0.233741 0.054235
vt 0.787729 0.012603
vt 0.958504 0.012603
vt 0.958504 0.276434
vt 0.787729 0.276434
vt 0.254956 0.012603
vt 0.389696 0.012603
vt 0.389696 0.276434
vt 0.254956 0.276434
vt 0.297188 0.858569
vt 0.297141 0.992874
vt 0.034160 0.992783
vt 0.034207 0.858478
vt 0.297324 0.461817
vt 0.034343 0.461726
vt 0.297382 0.295761
vt 0.034400 0.295671
vn 1.000000 0.000000 0.000000
vn 1.000000 0.000000 0.000000
vn 1.000000 0.000000 0.000000
vn 1.000000 0.000000 0.000000
vn 0.085043 -0.000000 0.996377
vn 0.085043 -0.000000 0.996377
vn 0.085043 -0.000000 0.996377
vn 0.085043 -0.000000 0.996377
vn 0.085272 -0.000000 -0.996358
vn 0.085272 -0.000000 -0.996358
vn 0.085272 -0.000000 -0.996358
vn 0.085272 -0.000000 -0.996358
vn 0.000000 1.000000 0.000000
vn 0.000000 1.000000 0.000000
vn 0.000000 1.000000 0.000000
vn 0.000000 1.000000 0.000000
vn 0.000000 0.085202 0.996364
vn 0.000000 0.085202 0.996364
vn 0.000000 0.085202 0.996364
vn 0.000000 0.085202 0.996364
vn 0.000000 0.085202 -0.996364
vn 0.000000 0.085202 -0.996364
vn 0.000000 0.085202 -0.996364
vn 0.000000 0.085202 -0.996364
vn 0.000000 -1.000000 0.000000
vn 0.000000 -1.000000 0.000000
vn 0.000000 -1.000000 0.000000
vn 0.000000 -1.000000 0.000000
vn 0.000000 -0.085201 0.996364
vn 0.000000 -0.085201 0.996364
vn 0.000000 -0.085201 0.996364
vn 0.000000 -0.085201 0.996364
vn 0.000000 -0.085201 -0.996364
vn 0.000000 -0.085201 -0.996364
vn 0.000000 -0.085201 -0.996364
vn 0.000000 -0.085201 -0.996364
vn 1.000000 -0.000043 -0.000341
vn 1.000000 -0.000043 -0.000341
vn 1.000000 -0.000309 -0.000172
vn 1.000000 -0.000178 -0.000255
vn 1.000000 -0.000274 0.000132
vn 1.000000 -0.000111 0.000203
vn 1.000000 -0.000043 0.000233
vn 1.000000 -0.000043 0.000233
vn 0.000000 1.000000 0.000000
vn 0.000000 1.000000 0.000000
vn 0.000000 1.000000 0.000000
vn 0.000000 1.000000 0.000000
vn 0.006289 -0.000021 -0.999980
vn 0.006289 -0.000021 -0.999980
vn 0.006289 -0.000021 -0.999980
vn 0.006289 -0.000021 -0.999980
vn 0.004971 -0.999988 0.000016
vn 0.004971 -0.999988 0.000016
vn 0.004971 -0.999988 0.000016
vn 0.004971 -0.999988 0.000016
vn 0.006381 -0.000015 0.999980
vn 0.006381 -0.000015 0.999980
vn 0.006381 -0.000015 0.999980
vn 0.006381 -0.000015 0.999980
vn 1.000000 0.000000 0.000000
vn 1.000000 0.000000 0.000000
vn 1.000000 0.000000 0.000000
vn 1.000000 0.000000 0.000000
vn 0.035107 0.999384 0.000023
vn 0.035107 0.999384 0.000023
vn 0.035107 0.999384 0.000023
vn 0.035107 0.999384 0.000023
vn 1.000000 0.000000 0.000352
vn 1.000000 0.000000 0.000352
vn 1.000000 0.000000 0.000352
vn 1.000000 0.000000 0.000352
vn 0.035109 -0.999384 0.000023
vn 0.035109 -0.999384 0.000023
vn 0.035109 -0.999384 0.000023
vn 0.035109 -0.999384 0.000023
vn 0.007037 0.998181 0.059876
vn 0.007037 0.998181 0.059876
vn 0.007037 0.998181 0.059876
vn 0.007037 0.998181 0.059876
vn 0.216993 0.000000 0.976173
vn 0.216993 0.000000 0.976173
vn 0.216993 0.000000 0.976173
vn 0.216993 0.000000 0.976173
vn 0.007042 -0.998181 0.059878
vn 0.007042 -0.998181 0.059878
vn 0.007042 -0.998181 0.059878
vn 0.007042 -0.998181 0.059878
vn 0.085543 0.996334 0.000000
vn 0.085543 0.996335 0.000000
vn 0.085543 0.996335 0.000000
vn 0.085543 0.996334 0.000000
vn 1.000000 0.000000 0.000000
vn 1.000000 0.000000 0.000000
vn 1.000000 0.000000 0.000000
vn 1.000000 0.000000 0.000000
vn 0.085548 -0.996334 0.000000
vn 0.085548 -0.996334 0.000000
vn 0.085548 -0.996334 0.000000
vn 0.085548 -0.996334 0.000000
vn 0.002608 0.997548 -0.069936
vn 0.002608 0.997548 -0.069936
vn 0.002608 0.997548 -0.069936
vn 0.002608 0.997548 -0.069936
vn 0.032366 0.000000 -0.999476
vn 0.032366 0.000000 -0.999476
vn 0.032366 0.000000 -0.999476
vn 0.032366 0.000000 -0.999476
vn 0.002611 -0.997548 -0.069942
vn 0.002611 -0.997548 -0.069942
vn 0.002611 -0.997548 -0.069942
vn 0.002611 -0.997548 -0.069942
vn 0.022782 0.999741 -0.000209
vn 0.022782 0.999740 -0.000209
vn 0.022782 0.999740 -0.000209
vn 0.022782 0.999740 -0.000209
vn 0.999924 0.012311 -0.000208
vn 0.999924 0.012311 -0.000208
vn 0.999924 0.012311 -0.000208
vn 0.999924 0.012311 -0.000208
vn 0.022863 0.012367 -0.999662
vn 0.022863 0.012367 -0.999662
vn 0.022863 0.012367 -0.999662
vn 0.022863 0.012367 -0.999662
vn 0.999924 0.012315 0.000140
vn 0.999924 0.012315 0.000140
vn 0.999924 0.012315 0.000140
vn 0.999924 0.012315 0.000140
vn 0.022781 0.999741 0.000141
vn 0.022781 0.999740 0.000141
vn 0.022781 0.999741 0.000141
vn 0.022781 0.999741 0.000141
vn 0.022846 0.012366 0.999663
vn 0.022846 0.012366 0.999663
vn 0.022846 0.012366 0.999663
vn 0.022846 0.012366 0.999663
vn 0.999831 -0.018407 0.000000
vn 0.999831 -0.018407 0.000000
vn 0.999831 -0.018407 0.000000
vn 0.999831 -0.018407 0.000000
vn 0.033969 -0.999423 0.000000
vn 0.033969 -0.999423 0.000000
vn 0.033969 -0.999423 0.000000
vn 0.033969 -0.999423 0.000000
vn 0.033969 0.999423 0.000000
vn 0.033969 0.999423 0.000000
vn 0.033969 0.999423 0.000000
vn 0.033969 0.999423 0.000000
vn 1.000000 0.000000 0.000000
vn 1.000000 0.000000 0.000000
vn 1.000000 0.000000 0.000000
vn 1.000000 0.000000 0.000000
vn 0.033969 -0.999423 0.000000
vn 0.033969 -0.999423 0.000000
vn 0.033969 -0.999423 0.000000
vn 0.033969 -0.999423 0.000000
vn 1.000000 0.000000 0.000000
vn 1.000000 0.000000 0.000000
vn 1.000000 0.000000 0.000000
vn 1.000000 0.000000 0.000000
vn 0.037518 0.000354 0.999296
vn 0.037518 0.000354 0.999296
vn 0.037518 0.000354 0.999296
vn 0.037518 0.000354 0.999296
vn 0.030390 -0.000366 -0.999538
vn 0.030390 -0.000366 -0.999538
vn 0.030390 -0.000366 -0.999538
vn 0.030390 -0.000366 -0.999538
vn 0.026936 -0.999637 0.000000
vn 0.026936 -0.999637 0.000000
vn 0.026936 -0.999637 0.000000
vn 0.026936 -0.999637 0.000000
vn 1.000000 0.000000 0.000000
vn 1.000000 0.000000 0.000000
vn 1.000000 0.000000 0.000000
vn 1.000000 0.000000 0.000000
vn 0.040986 0.999160 0.000000
vn 0.040986 0.999160 0.000000
vn 0.040986 0.999160 0.000000
vn 0.040986 0.999160 0.000000
vn 0.030460 -0.000365 0.999536
vn 0.030460 -0.000365 0.999536
vn 0.030460 -0.000365 0.999536
vn 0.030460 -0.000365 0.999536
vn 1.000000 0.000000 0.000000
vn 1.000000 0.000000 0.000000
vn 1.000000 0.000000 0.000000
vn 1.000000 0.000000 0.000000
vn 0.037456 0.000354 -0.999298
vn 0.037456 0.000354 -0.999298
vn 0.037456 0.000354 -0.999298
vn 0.037456 0.000354 -0.999298
vn 0.035109 0.999384 -0.000015
vn 0.035109 0.999384 -0.000015
vn 0.035109 0.999384 -0.000015
vn 0.035109 0.999384 -0.000015
vn 1.000000 0.000000 -0.000237
vn 1.000000 0.000000 -0.000237
vn 1.000000 0.000000 -0.000237
vn 1.000000 0.000000 -0.000237
vn 0.035111 -0.999384 -0.000015
vn 0.035111 -0.999384 -0.000015
vn 0.035111 -0.999384 -0.000015
vn 0.035111 -0.999384 -0.000015
vn 0.007041 0.998181 -0.059880
vn 0.007041 0.998181 -0.059879
vn 0.007041 0.998181 -0.059880
vn 0.007041 0.998181 -0.059880
vn 0.216993 0.000000 -0.976173
vn 0.216993 0.000000 -0.976173
vn 0.216993 0.000000 -0.976173
vn 0.216993 0.000000 -0.976173
vn 0.007041 -0.998181 -0.059875
vn 0.007041 -0.998181 -0.059875
vn 0.007041 -0.998181 -0.059875
vn 0.007041 -0.998181 -0.059875
vn 0.085546 0.996334 0.000000
vn 0.085546 0.996334 0.000000
vn 0.085546 0.996334 0.000000
vn 0.085546 0.996334 0.000000
vn 1.000000 0.000007 0.000000
vn 1.000000 0.000007 0.000000
vn 1.000000 0.000007 0.000000
vn 1.000000 0.000007 0.000000
vn 0.085549 -0.996334 0.000000
vn 0.085549 -0.996334 0.000000
vn 0.085549 -0.996334 0.000000
vn 0.085549 -0.996334 0.000000
vn 0.002605 0.997548 0.069934
vn 0.002605 0.997548 0.069934
vn 0.002605 0.997548 0.069934
vn 0.002605 0.997548 0.069934
vn 0.032366 -0.000011 0.999476
vn 0.032366 -0.000011 0.999476
vn 0.032366 -0.000011 0.999476
vn 0.032366 -0.000011 0.999476
vn 0.002605 -0.997548 0.069943
vn 0.002605 -0.997548 0.069943
vn 0.002605 -0.997548 0.069943
vn 0.002605 -0.997548 0.069943
vn 0.011315 -0.999936 0.000000
vn 0.011315 -0.999936 0.000000
vn 0.011315 -0.999936 0.000000
vn 0.011315 -0.999936 0.000000
vn 0.011315 0.999936 0.000000
vn 0.011315 0.999936 0.000000
vn 0.011315 0.999936 0.000000
vn 0.011315 0.999936 0.000000
vn 0.624444 0.000000 0.781070
vn 0.624444 0.000000 0.781070
vn 0.624444 0.000000 0.781070
vn 0.624444 0.000000 0.781070
vn 1.000000 0.000000 0.000000
vn 1.000000 0.000000 0.000000
vn 1.000000 0.000000 0.000000
vn 1.000000 0.000000 0.000000
vn 0.624464 0.000000 -0.781054
vn 0.624464 0.000000 -0.781054
vn 0.624464 0.000000 -0.781054
vn 0.624464 0.000000 -0.781054
vn 0.015432 -0.999881 0.000000
vn 0.015432 -0.999881 0.000000
vn 0.015432 -0.999881 0.000000
vn 0.015432 -0.999881 0.000000
vn 0.015433 0.999881 0.000000
vn 0.015433 0.999881 0.000000
vn 0.015433 0.999881 0.000000
vn 0.015433 0.999881 0.000000
vn 0.869616 0.000000 0.493729
vn 0.869616 0.000000 0.493729
vn 0.869616 0.000000 0.493729
vn 0.869616 0.000000 0.493729
vn 1.000000 0.000000 0.000000
vn 1.000000 0.000000 0.000000
vn 1.000000 0.000000 0.000000
vn 1.000000 0.000000 0.000000
vn 0.869617 0.000000 -0.493728
vn 0.869617 0.000000 -0.493728
vn 0.869617 0.000000 -0.493728
vn 0.869617 0.000000 -0.493728
vn 0.000000 -1.000000 0.000000
vn 0.000000 -1.000000 0.000000
vn 0.000000 -1.000000 0.000000
vn 0.000000 -1.000000 0.000000
vn 0.000000 -1.000000 0.000000
vn 0.000000 -1.000000 0.000000
vn 0.000000 -1.000000 0.000000
vn 0.000000 -1.000000 0.000000
vn 0.000000 1.000000 -0.000000
vn 0.000000 1.000000 -0.000000
vn 0.000000 1.000000 -0.000000
vn 0.000000 1.000000 -0.000000
vn 0.000000 1.000000 -0.000000
vn 0.000000 1.000000 -0.000000
vn 0.000000 1.000000 -0.000000
vn 0.000000 1.000000 -0.000000
s off
g wall_01_lft
usemtl blinn1SG
f 5/1/1 8/2/2 7/3/3 6/4/4
f 2/5/5 6/4/6 7/3/7 3/6/8
f 4/7/9 8/2/10 5/1/11 1/8/12
f 13/9/13 14/10/14 15/11/15 16/12/16
f 10/13/17 11/14/18 15/11/19 14/10/20
f 12/15/21 9/16/22 13/9/23 16/12/24
f 21/17/25 22/18/26 23/19/27 24/20/28
f 18/21/29 19/22/30 23/19/31 22/18/32
f 20/23/33 17/24/34 21/17/35 24/20/36
s 1
f 25/25/37 30/26/38 31/27/39 26/28/40
f 26/28/40 31/27/39 32/29/41 27/30/42
f 27/30/42 32/29/41 29/31/43 28/32/44
s off
f 29/33/45 33/34/46 34/35/47 30/36/48
f 30/37/49 34/38/50 35/39/51 31/40/52
f 31/41/53 35/42/54 36/43/55 32/44/56
f 32/45/57 36/46/58 33/47/59 29/48/60
f 35/49/61 34/50/62 33/51/63 36/52/64
f 38/53/65 41/54/66 42/55/67 39/56/68
f 43/57/69 41/54/70 38/53/71 37/58/72
f 44/59/73 43/57/74 37/58/75 40/60/76
f 42/61/77 41/62/78 45/63/79 46/64/80
f 41/62/81 43/65/82 47/66/83 45/63/84
f 43/65/85 44/67/86 48/68/87 47/66/88
f 46/69/89 45/70/90 49/71/91 50/72/92
f 45/70/93 47/73/94 51/74/95 49/71/96
f 47/73/97 48/75/98 52/76/99 51/74/100
f 50/77/101 49/78/102 53/79/103 54/80/104
f 49/78/105 51/81/106 55/82/107 53/79/108
f 51/81/109 52/83/110 56/84/111 55/82/112
f 58/85/113 61/86/114 62/87/115 59/88/116
f 60/89/117 61/86/118 58/85/119 57/90/120
f 61/86/121 60/89/122 63/91/123 62/92/124
f 66/93/125 64/94/126 68/95/127 69/96/128
f 67/97/129 68/95/130 64/94/131 65/98/132
f 69/99/133 68/95/134 67/97/135 70/100/136
f 74/101/137 73/102/138 72/103/139 71/104/140
f 71/104/141 76/105/142 75/106/143 74/101/144
f 78/107/145 80/108/146 81/109/147 79/110/148
f 82/111/149 80/108/150 78/107/151 77/112/152
f 77/112/153 84/113/154 83/114/155 82/111/156
f 85/115/157 86/116/158 89/117/159 91/118/160
f 92/119/161 88/120/162 85/115/163 91/118/164
f 87/121/165 90/122/166 89/117/167 86/116/168
f 89/123/169 90/124/170 94/125/171 93/126/172
f 91/127/173 89/123/174 93/126/175 95/128/176
f 92/129/177 91/127/178 95/128/179 96/130/180
f 93/131/181 94/132/182 97/133/183 98/134/184
f 95/135/185 93/131/186 98/134/187 99/136/188
f 96/137/189 95/135/190 99/136/191 100/138/192
f 102/139/193 103/140/194 106/141/195 105/142/196
f 107/143/197 101/144/198 102/139/199 105/142/200
f 108/145/201 104/146/202 101/144/203 107/143/204
f 106/147/205 110/148/206 109/149/207 105/150/208
f 105/150/209 109/149/210 111/151/211 107/152/212
f 107/152/213 111/151/214 112/153/215 108/154/216
f 110/155/217 114/156/218 113/157/219 109/158/220
f 109/158/221 113/157/222 115/159/223 111/160/224
f 111/160/225 115/159/226 116/161/227 112/162/228
f 114/163/229 118/164/230 117/165/231 113/166/232
f 113/166/233 117/165/234 119/167/235 115/168/236
f 115/168/237 119/167/238 120/169/239 116/170/240
f 125/171/241 128/172/242 127/173/243 126/174/244
f 123/175/245 124/176/246 121/177/247 122/178/248
f 123/179/249 125/180/250 126/174/251 124/176/252
f 124/176/253 126/174/254 127/173/255 121/177/256
f 121/177/257 127/173/258 128/181/259 122/182/260
f 133/183/261 136/184/262 135/185/263 134/186/264
f 131/187/265 132/188/266 129/189/267 130/190/268
f 131/191/269 133/192/270 134/186/271 132/188/272
f 132/188/273 134/186/274 135/185/275 129/189/276
f 129/189/277 135/185/278 136/193/279 130/194/280
s 2
f 142/195/281 139/196/282 138/197/283 143/198/284
f 140/199/285 141/200/286 144/201/287 137/202/288
f 141/200/286 142/195/281 143/198/284 144/201/287
s 3
f 148/203/289 146/204/290 145/205/291 151/206/292
f 147/207/293 148/203/289 151/206/292 152/208/294
f 149/209/295 147/207/293 152/208/294 150/210/296
