# This file uses feet as units for non-parametric coordinates.

mtllib floor_2.mtl
g default
v 89.877769 237.676331 701.944092
v 89.877769 237.676331 214.664093
v -92.602196 237.676331 214.664093
v -92.602196 237.676331 701.944092
v -92.602196 0.000000 214.664093
v 89.877769 0.000000 214.664093
v -92.602196 0.000002 701.944092
v 89.877769 0.000002 701.944092
vt 0.256219 0.013885
vt 0.957734 0.013884
vt 0.957734 0.276952
vt 0.256219 0.276952
vt 0.297547 0.289372
vt 0.297547 0.990886
vt 0.034479 0.990886
vt 0.034479 0.289372
vn 0.000000 -1.000000 0.000000
vn 0.000000 -1.000000 0.000000
vn 0.000000 -1.000000 0.000000
vn 0.000000 -1.000000 0.000000
vn 0.000000 1.000000 -0.000000
vn 0.000000 1.000000 -0.000000
vn 0.000000 1.000000 -0.000000
vn 0.000000 1.000000 -0.000000
s off
g floor_2
usemtl walls_002_MATSG
f 4/1/1 3/2/2 2/3/3 1/4/4
f 5/5/5 7/6/6 8/7/7 6/8/8
