# This file uses feet as units for non-parametric coordinates.

mtllib floor_4.mtl
g default
v -86.234772 0.100000 -389.051880
v -86.234772 0.100000 -383.449097
v 93.202728 0.100000 -383.449097
v 93.202728 0.100000 -389.051880
v -86.234772 0.684567 -389.001831
v -86.234772 0.684567 -383.499146
v 93.202728 0.684567 -383.499146
v 93.202728 0.684567 -389.001831
v 93.202728 237.576324 -389.051880
v 93.202728 237.576324 -383.449097
v -86.234772 237.576324 -383.449097
v -86.234772 237.576324 -389.051880
v 93.202728 236.991760 -389.001831
v 93.202728 236.991760 -383.499146
v -86.234772 236.991760 -383.499146
v -86.234772 236.991760 -389.001831
v 94.824005 237.676331 -389.151978
v 94.824005 237.676331 -876.631958
v -87.856018 237.676331 -876.631958
v -87.856018 237.676331 -389.151978
v -87.856018 0.000000 -876.631958
v 94.824005 0.000000 -876.631958
v -87.856018 0.000002 -389.151978
v 94.824005 0.000002 -389.151978
vt 0.041329 0.310294
vt 0.049381 0.310297
vt 0.049290 0.573103
vt 0.041239 0.573100
vt 0.050436 0.310297
vt 0.050346 0.573103
vt 0.040183 0.573100
vt 0.040274 0.310294
vt 0.974974 0.476658
vt 0.983025 0.476661
vt 0.982935 0.739467
vt 0.974883 0.739464
vt 0.984081 0.476661
vt 0.983990 0.739467
vt 0.973828 0.739464
vt 0.973918 0.476658
vt 0.256219 0.013885
vt 0.957734 0.013884
vt 0.957734 0.276952
vt 0.256219 0.276952
vt 0.297547 0.289372
vt 0.297547 0.990886
vt 0.034479 0.990886
vt 0.034479 0.289372
vn 0.000000 1.000000 0.000000
vn 0.000000 1.000000 0.000000
vn 0.000000 1.000000 0.000000
vn 0.000000 1.000000 0.000000
vn 0.000000 0.085305 0.996355
vn 0.000000 0.085305 0.996355
vn 0.000000 0.085305 0.996355
vn 0.000000 0.085305 0.996355
vn 0.000000 0.085305 -0.996355
vn 0.000000 0.085305 -0.996355
vn 0.000000 0.085305 -0.996355
vn 0.000000 0.085305 -0.996355
vn 0.000000 -1.000000 0.000000
vn 0.000000 -1.000000 0.000000
vn 0.000000 -1.000000 0.000000
vn 0.000000 -1.000000 0.000000
vn 0.000000 -0.085304 0.996355
vn 0.000000 -0.085304 0.996355
vn 0.000000 -0.085304 0.996355
vn 0.000000 -0.085304 0.996355
vn 0.000000 -0.085304 -0.996355
vn 0.000000 -0.085304 -0.996355
vn 0.000000 -0.085304 -0.996355
vn 0.000000 -0.085304 -0.996355
vn 0.000000 -1.000000 0.000000
vn 0.000000 -1.000000 0.000000
vn 0.000000 -1.000000 0.000000
vn 0.000000 -1.000000 0.000000
vn 0.000000 1.000000 -0.000000
vn 0.000000 1.000000 -0.000000
vn 0.000000 1.000000 -0.000000
vn 0.000000 1.000000 -0.000000
s off
g floor_4
usemtl walls_003_MATSG
f 5/1/1 6/2/2 7/3/3 8/4/4
f 2/5/5 3/6/6 7/3/7 6/2/8
f 4/7/9 1/8/10 5/1/11 8/4/12
f 13/9/13 14/10/14 15/11/15 16/12/16
f 10/13/17 11/14/18 15/11/19 14/10/20
f 12/15/21 9/16/22 13/9/23 16/12/24
usemtl walls_002_MATSG
f 20/17/25 19/18/26 18/19/27 17/20/28
f 21/21/29 23/22/30 24/23/31 22/24/32
