# This file uses feet as units for non-parametric coordinates.

mtllib floor_3.mtl
g default
v -86.234741 0.100000 170.349609
v -86.234741 0.100000 175.952393
v 93.202759 0.100000 175.952393
v 93.202759 0.100000 170.349609
v -86.234741 0.684567 170.399597
v -86.234741 0.684567 175.902405
v 93.202759 0.684567 175.902405
v 93.202759 0.684567 170.399597
v 93.202759 237.576324 170.349609
v 93.202759 237.576324 175.952393
v -86.234741 237.576324 175.952393
v -86.234741 237.576324 170.349609
v 93.202759 236.991760 170.399597
v 93.202759 236.991760 175.902405
v -86.234741 236.991760 175.902405
v -86.234741 236.991760 170.399597
v 94.824036 237.676331 170.249634
v 94.824036 237.676331 -317.230347
v -87.855988 237.676331 -317.230347
v -87.855988 237.676331 170.249634
v -87.856018 237.676331 76.951904
v -87.856018 237.676331 -198.953979
v 94.824036 237.676331 -198.953979
v 94.824036 237.676331 76.951904
v 94.824036 0.000000 170.249512
v -87.855988 0.000000 170.249512
v -87.855988 -0.000000 -317.230469
v 94.824036 -0.000000 -317.230469
v -87.855988 0.000000 -198.953979
v -87.855988 0.000000 76.951782
v 94.824036 0.000000 76.951782
v 94.824036 0.000000 -198.953979
vt 0.041329 0.310294
vt 0.049381 0.310297
vt 0.049290 0.573103
vt 0.041239 0.573100
vt 0.050436 0.310297
vt 0.050346 0.573103
vt 0.040183 0.573100
vt 0.040274 0.310294
vt 0.974974 0.476658
vt 0.983025 0.476661
vt 0.982935 0.739467
vt 0.974883 0.739464
vt 0.984081 0.476661
vt 0.983990 0.739467
vt 0.973828 0.739464
vt 0.973918 0.476658
vt 0.780431 0.020411
vt 0.947840 0.020412
vt 0.947840 0.278295
vt 0.780915 0.278295
vt 0.260152 0.020412
vt 0.392338 0.020412
vt 0.391854 0.278295
vt 0.260152 0.278295
vt 0.294537 0.856616
vt 0.294425 0.989415
vt 0.034434 0.989155
vt 0.034651 0.856371
vt 0.294638 0.464234
vt 0.034821 0.464213
vt 0.294505 0.295916
vt 0.034738 0.296085
vn 0.000000 1.000000 0.000000
vn 0.000000 1.000000 0.000000
vn 0.000000 1.000000 0.000000
vn 0.000000 1.000000 0.000000
vn 0.000000 0.085202 0.996364
vn 0.000000 0.085202 0.996364
vn 0.000000 0.085202 0.996364
vn 0.000000 0.085202 0.996364
vn 0.000000 0.085202 -0.996364
vn 0.000000 0.085202 -0.996364
vn 0.000000 0.085202 -0.996364
vn 0.000000 0.085202 -0.996364
vn 0.000000 -1.000000 0.000000
vn 0.000000 -1.000000 0.000000
vn 0.000000 -1.000000 0.000000
vn 0.000000 -1.000000 0.000000
vn 0.000000 -0.085201 0.996364
vn 0.000000 -0.085201 0.996364
vn 0.000000 -0.085201 0.996364
vn 0.000000 -0.085201 0.996364
vn 0.000000 -0.085201 -0.996364
vn 0.000000 -0.085201 -0.996364
vn 0.000000 -0.085201 -0.996364
vn 0.000000 -0.085201 -0.996364
vn 0.000000 -1.000000 0.000000
vn 0.000000 -1.000000 0.000000
vn 0.000000 -1.000000 0.000000
vn 0.000000 -1.000000 0.000000
vn 0.000000 -1.000000 0.000000
vn 0.000000 -1.000000 0.000000
vn 0.000000 -1.000000 0.000000
vn 0.000000 -1.000000 0.000000
vn 0.000000 1.000000 -0.000000
vn 0.000000 1.000000 -0.000000
vn 0.000000 1.000000 -0.000000
vn 0.000000 1.000000 -0.000000
vn 0.000000 1.000000 -0.000000
vn 0.000000 1.000000 -0.000000
vn 0.000000 1.000000 -0.000000
vn 0.000000 1.000000 -0.000000
s off
g floor_3
usemtl blinn1SG
f 5/1/1 6/2/2 7/3/3 8/4/4
f 2/5/5 3/6/6 7/3/7 6/2/8
f 4/7/9 1/8/10 5/1/11 8/4/12
f 13/9/13 14/10/14 15/11/15 16/12/16
f 10/13/17 11/14/18 15/11/19 14/10/20
f 12/15/21 9/16/22 13/9/23 16/12/24
s 1
usemtl walls_003_MATSG
f 22/17/25 19/18/26 18/19/27 23/20/28
f 20/21/29 21/22/30 24/23/31 17/24/32
f 21/22/30 22/17/25 23/20/28 24/23/31
s 2
f 30/25/33 26/26/34 25/27/35 31/28/36
f 29/29/37 30/25/33 31/28/36 32/30/38
f 27/31/39 29/29/37 32/30/38 28/32/40
